<mxfile host="app.diagrams.net" modified="2021-01-27T12:25:36.980Z" agent="5.0 (Windows NT 6.2; Win64; x64) AppleWebKit/537.36 (KHTML, like Gecko) Chrome/83.0.4103.61 Safari/537.36" etag="luvdmAaD86vRBV_QVi3u" version="14.2.7" type="github">
  <diagram id="sBf-npZ_ohLiZ4Dtc0Xp" name="Page-1">
    <mxGraphModel dx="1030" dy="1660" grid="1" gridSize="10" guides="1" tooltips="1" connect="1" arrows="1" fold="1" page="1" pageScale="1" pageWidth="827" pageHeight="1169" math="0" shadow="0">
      <root>
        <mxCell id="0" />
        <mxCell id="1" parent="0" />
        <mxCell id="oRtwYqCaFaRlUAZQ301p-6" value="" style="group" vertex="1" connectable="0" parent="1">
          <mxGeometry x="150" y="140" width="90" height="220" as="geometry" />
        </mxCell>
        <mxCell id="oRtwYqCaFaRlUAZQ301p-1" value="引导页page1" style="rounded=0;whiteSpace=wrap;html=1;" vertex="1" parent="oRtwYqCaFaRlUAZQ301p-6">
          <mxGeometry width="90" height="220" as="geometry" />
        </mxCell>
        <mxCell id="oRtwYqCaFaRlUAZQ301p-2" value="&lt;font color=&quot;#0000ff&quot;&gt;跳过&lt;/font&gt;" style="text;html=1;strokeColor=none;fillColor=none;align=center;verticalAlign=middle;whiteSpace=wrap;rounded=0;" vertex="1" parent="oRtwYqCaFaRlUAZQ301p-6">
          <mxGeometry x="57.85714285714286" y="10" width="25.714285714285715" height="20" as="geometry" />
        </mxCell>
        <mxCell id="oRtwYqCaFaRlUAZQ301p-4" value="Next" style="rounded=1;whiteSpace=wrap;html=1;" vertex="1" parent="oRtwYqCaFaRlUAZQ301p-6">
          <mxGeometry x="19.28571428571429" y="190" width="51.42857142857143" height="20" as="geometry" />
        </mxCell>
        <mxCell id="oRtwYqCaFaRlUAZQ301p-7" value="" style="group" vertex="1" connectable="0" parent="1">
          <mxGeometry x="280" y="140" width="90" height="220" as="geometry" />
        </mxCell>
        <mxCell id="oRtwYqCaFaRlUAZQ301p-8" value="引导页page2" style="rounded=0;whiteSpace=wrap;html=1;" vertex="1" parent="oRtwYqCaFaRlUAZQ301p-7">
          <mxGeometry width="90" height="220" as="geometry" />
        </mxCell>
        <mxCell id="oRtwYqCaFaRlUAZQ301p-9" value="&lt;font color=&quot;#0000ff&quot;&gt;跳过&lt;/font&gt;" style="text;html=1;strokeColor=none;fillColor=none;align=center;verticalAlign=middle;whiteSpace=wrap;rounded=0;" vertex="1" parent="oRtwYqCaFaRlUAZQ301p-7">
          <mxGeometry x="57.85714285714286" y="10" width="25.714285714285715" height="20" as="geometry" />
        </mxCell>
        <mxCell id="oRtwYqCaFaRlUAZQ301p-10" value="Next" style="rounded=1;whiteSpace=wrap;html=1;" vertex="1" parent="oRtwYqCaFaRlUAZQ301p-7">
          <mxGeometry x="19.28571428571429" y="190" width="51.42857142857143" height="20" as="geometry" />
        </mxCell>
        <mxCell id="oRtwYqCaFaRlUAZQ301p-11" value="" style="group" vertex="1" connectable="0" parent="1">
          <mxGeometry x="530" y="90" width="100" height="120" as="geometry" />
        </mxCell>
        <mxCell id="oRtwYqCaFaRlUAZQ301p-12" value="引导页page3" style="rounded=0;whiteSpace=wrap;html=1;" vertex="1" parent="oRtwYqCaFaRlUAZQ301p-11">
          <mxGeometry width="100" height="119.99999999999999" as="geometry" />
        </mxCell>
        <mxCell id="oRtwYqCaFaRlUAZQ301p-13" value="&lt;font color=&quot;#0000ff&quot;&gt;跳过&lt;/font&gt;" style="text;html=1;strokeColor=none;fillColor=none;align=center;verticalAlign=middle;whiteSpace=wrap;rounded=0;" vertex="1" parent="oRtwYqCaFaRlUAZQ301p-11">
          <mxGeometry x="64.28571428571429" y="5.454545454545454" width="28.571428571428573" height="10.909090909090908" as="geometry" />
        </mxCell>
        <mxCell id="oRtwYqCaFaRlUAZQ301p-14" value="立即申请" style="rounded=1;whiteSpace=wrap;html=1;" vertex="1" parent="oRtwYqCaFaRlUAZQ301p-11">
          <mxGeometry x="21.42857142857143" y="103.63636363636363" width="57.142857142857146" height="10.909090909090908" as="geometry" />
        </mxCell>
        <mxCell id="oRtwYqCaFaRlUAZQ301p-16" value="" style="group" vertex="1" connectable="0" parent="1">
          <mxGeometry x="530" y="340" width="100" height="120" as="geometry" />
        </mxCell>
        <mxCell id="oRtwYqCaFaRlUAZQ301p-17" value="引导页page3" style="rounded=0;whiteSpace=wrap;html=1;" vertex="1" parent="oRtwYqCaFaRlUAZQ301p-16">
          <mxGeometry width="100" height="119.99999999999999" as="geometry" />
        </mxCell>
        <mxCell id="oRtwYqCaFaRlUAZQ301p-18" value="&lt;font color=&quot;#0000ff&quot;&gt;跳过&lt;/font&gt;" style="text;html=1;strokeColor=none;fillColor=none;align=center;verticalAlign=middle;whiteSpace=wrap;rounded=0;" vertex="1" parent="oRtwYqCaFaRlUAZQ301p-16">
          <mxGeometry x="64.28571428571429" y="5.454545454545454" width="28.571428571428573" height="10.909090909090908" as="geometry" />
        </mxCell>
        <mxCell id="oRtwYqCaFaRlUAZQ301p-19" value="立即使用" style="rounded=1;whiteSpace=wrap;html=1;" vertex="1" parent="oRtwYqCaFaRlUAZQ301p-16">
          <mxGeometry x="21.42857142857143" y="103.63636363636363" width="57.142857142857146" height="10.909090909090908" as="geometry" />
        </mxCell>
        <mxCell id="oRtwYqCaFaRlUAZQ301p-23" style="edgeStyle=orthogonalEdgeStyle;rounded=0;orthogonalLoop=1;jettySize=auto;html=1;exitX=0.5;exitY=0;exitDx=0;exitDy=0;" edge="1" parent="1" source="oRtwYqCaFaRlUAZQ301p-20" target="oRtwYqCaFaRlUAZQ301p-12">
          <mxGeometry relative="1" as="geometry" />
        </mxCell>
        <mxCell id="oRtwYqCaFaRlUAZQ301p-25" value="YES" style="edgeLabel;html=1;align=center;verticalAlign=middle;resizable=0;points=[];" vertex="1" connectable="0" parent="oRtwYqCaFaRlUAZQ301p-23">
          <mxGeometry x="0.184" y="3" relative="1" as="geometry">
            <mxPoint as="offset" />
          </mxGeometry>
        </mxCell>
        <mxCell id="oRtwYqCaFaRlUAZQ301p-24" style="edgeStyle=orthogonalEdgeStyle;rounded=0;orthogonalLoop=1;jettySize=auto;html=1;entryX=0;entryY=0.557;entryDx=0;entryDy=0;entryPerimeter=0;" edge="1" parent="1" source="oRtwYqCaFaRlUAZQ301p-20" target="oRtwYqCaFaRlUAZQ301p-17">
          <mxGeometry relative="1" as="geometry">
            <Array as="points">
              <mxPoint x="440" y="413" />
            </Array>
          </mxGeometry>
        </mxCell>
        <mxCell id="oRtwYqCaFaRlUAZQ301p-26" value="NO" style="edgeLabel;html=1;align=center;verticalAlign=middle;resizable=0;points=[];" vertex="1" connectable="0" parent="oRtwYqCaFaRlUAZQ301p-24">
          <mxGeometry x="0.5252" relative="1" as="geometry">
            <mxPoint as="offset" />
          </mxGeometry>
        </mxCell>
        <mxCell id="oRtwYqCaFaRlUAZQ301p-20" value="第一次安装？" style="rhombus;whiteSpace=wrap;html=1;" vertex="1" parent="1">
          <mxGeometry x="400" y="210" width="80" height="80" as="geometry" />
        </mxCell>
        <mxCell id="oRtwYqCaFaRlUAZQ301p-21" style="edgeStyle=orthogonalEdgeStyle;rounded=0;orthogonalLoop=1;jettySize=auto;html=1;entryX=0;entryY=0.5;entryDx=0;entryDy=0;" edge="1" parent="1" source="oRtwYqCaFaRlUAZQ301p-1" target="oRtwYqCaFaRlUAZQ301p-8">
          <mxGeometry relative="1" as="geometry" />
        </mxCell>
        <mxCell id="oRtwYqCaFaRlUAZQ301p-22" style="edgeStyle=orthogonalEdgeStyle;rounded=0;orthogonalLoop=1;jettySize=auto;html=1;entryX=0;entryY=0.5;entryDx=0;entryDy=0;" edge="1" parent="1" source="oRtwYqCaFaRlUAZQ301p-8" target="oRtwYqCaFaRlUAZQ301p-20">
          <mxGeometry relative="1" as="geometry" />
        </mxCell>
        <mxCell id="oRtwYqCaFaRlUAZQ301p-31" value="" style="shape=image;verticalLabelPosition=bottom;labelBackgroundColor=#ffffff;verticalAlign=top;aspect=fixed;imageAspect=0;image=data:image/png,iVBORw0KGgoAAAANSUhEUgAAAOoAAAIICAYAAABgh3LuAAAgAElEQVR4XuxdB3hUxRb+N72ThNCS0BJISEILvffeEakKiqgUpXdFmlQBRaoKyBOpShOQjoo0pffe0xsJ6X3f98/mLksISUhITNiZ92LI7r0zc/85/zlnzsw9o9ph7q2GLBIBiUCBRkAliVqgx0d2TiIgEJBElYIgESgECEiiFoJBkl2UCEiiShmQCBQCBCRRC8EgyS5KBCRRpQxIBAoBApKoGQySsl6lUr7TXcDSflgIRld28Y1BQBI1w6FUA2oVoALUUPMXyFVV2mfiDxEzf2PkQD5IAUdAEjWTAUpVq2HsXAKIS4ChiTFMixdF9N1HSI2Nlxwt4IL9pnWvQBGVhopGS1vEH7Ro/J/GjPG/MSYGME9ORayRAcyTUmGUZuFUNIRpli5ZBaQYqGCcooaBMJAaK8kqUww01xmqAQO1pv6MisrVCdHmxrCMiEWqrRVMihdFxLU7sAyOgEotbKy2T8/6rIZKWOL0Rlc/zC/RTCHWAh2VBicVkJqG93PTibQ/UlSqtHFIA+0ZtDqyoOPBiOpZbxrQisujXK1SQ9OsxitSBokyJPyj52RMU6/GY0qrUxE08RDPvKsXBlVz03Ou1bOP0t2Xy+EvMERNMTGCY5eWcOvU6nnOqFPhd/QMbv20FcZqIMLUAK7d2uHB3ydR/b3eSLl8Fw/3HnmGvSCjGrbVKsGmThUE/v4XkvxCkMrBcC+DRp9+AEM7aw39U1Lx8PAx3Nm0C2bJui6uRmFUmT4CgY99UcrRCRf27Ed4UDAMTExg7xMKVYpatEP8U6GCTQ0PuLRuDJ+zlxF88Rq8enVCVEgY/A4ch0FU7Jum4DN8Hgpp6W6tUK5nezw+eQ6lG9bC/T1/wNDICGVbNcTxWUuguv1Y4GXqVAIGRkYIDQxEk1njcf/AX4g4/E86DpH0Gl5pFKqG8Bwb8bdaJZQuuWJAFuloef4zqag1nD3dtX3V8lmHvPySnpPv2cswjUsU3FeYm6pSI5VKhO2nashMOWJHqPy11aRxVaEs+8PrqIAM1RpDkVsXrMAQ1dKtPCrPHI6itbzSlBS1n0Zx3j9wHJemfAPTiBgUfaslTDxccO33I/Bq3hjmD4Jwb+d+LQ4qYyNYNauNEl5uMCpqi/trtyH+vi/qfv05TJ1L4MiMb2AQEi7aiDdUoXK/LnBp3RT7PxgH44AnugoY9RZPxYkFK1GiXWM8OnsRCRFRSE5IhENQJAxTNSPFPhZtWAOVJn0Eq4ploEpMBOKToLa2EIrg/KI1CNqwFwaJSW80WWmM1CoVWm5eAptqrtjddhC8p38KE7si8Dt2BuW6t8KdbYcQ8M06oeCKNqyFUu2a4Paho0g2MUSH2ZNwdsEqBGzdBwPhP6ng8XEflGvfHElQY/fA0TCOjIVLr47w7Nsdf38yBcFBQXh7y/fwPX0B/379PUxSUmFED4pK2NIc7v3fxsMjRwEDulCazylVJLFi+eIjo5EUGY0Wo4fh4LzFog4SK8FIhTpfjIJTVQ+oLEzxa6eBcK5ZFXXHD4XKyBB/TZmPmCt3BImTTIxg16oeSnt54MHGXYgNCEbDJTNgW84Z/uev4vTMxTBNyd2W+gJDVCsPVyTUdkfp+t7wuXQDLfv1wtJeg+BWrybcatfApYWrYRIejWbfzYVl1fL4YcTnaNSlPUwfh+HW6k0aEpgYw6hoEXiOGQQbB3uE+vvj4ZptiHvgB6feHeF74jTc+ndHxXbNoTJUIT4oDPu/+ApRfgEo5VACiXcfa1ztNJc7wsoEPZcvwL0/jiE+MhJVunfCidnfIvrWPY1FTnPpvEYNRPkhvZBqbIDE6BgYJqbA/8p1lGlaF+Fnb+DyhAWIfeT/RhNVWCao0Hr7Clh5lMW62t1g6+2B2j27IPjBI5Tq0BiPD5+E3/wfheVLNgQ8xw1Ciepe+PfzRQj39UO7nxfj9w8nwCYqEfFGKrRYNQ/Hx89GmI0pOrz3Dvz+OQ9VhTJ4tHWvULYx5UvByrkkYiOj4Fq9KmJuP0TEiXMwotm1NIfHB70Rfu26sIrC4BoZIMHWAk71a8HOughub/4N8f7BiLrniw7TxwP1q2L/iClIvXwXDk1qI9wwFfEnL6Pkux2QHByOFEMV1EHhSExOgnX50nh84G9YF3eAYUwCrFrXRWJ8PFL/uQqf8CfoumQm/hgyBeaNvFHS1BIBe//K1fgXKKIaeLuhRMUKiLh2C7UHD8ShxctQ/4N3cGTRcqTcfASzJ9HCFaI2DrlyA7aebgi/eA1GdFlMjFC0dX3U/3gAHt25C5uidgjzDxBETbjvKzRonWmjEBgcJAbc1NAI0UhB/Y/exeHhU2GTmKrRsgqcampezZw2bcql/V5ckzb3ImGdOzRDyXc6QG1tjlOrNqJRmzYIffAI5do1wf3dR+Dz006kRsbkaqAKw82CqDtWwKpSOWzqMgh1RnyAuAf+SEqIh1OXpnj8x78aogJIMACo4OwqlBPBuWsr1sGothfirt5ByrUHYIyh0fKZOPbzFpSu643oa3dhYWMFt+7tEfPIH3cPHEXgyXNos2g6ggIDce/8RRjc9UHyQ3/hyags0oh69TpSDVTCZS7Soi4q9eqA5NRkhOw/BZ9dhxEXQKL6aIjauBr2Df8C6gt3tFZXbWGKOl9NwolvfkDJut54cvwcYuJi4dG3Gx5s2QN7J0dEnr8Gw1IOsGlYDfGnryE0MR71Jg7F5VnL4diuCewtbXDth4258n4LFFFRww1FSpZA+K17aDpqKHZOnA6Pzm0QcOUGIv78F6ZPojVxAW0ASDP5j7cwgWPbxlCZGqHOu2/D52bGROWcwbyaGzx6d0JySirC7z3CvV/2wCwmUbgwWo4CsK5YDiozE0T7BiA1PApmdrZQp6QgITLyWfApLfhAoYotWxx2LeqgapXKeHTpOqr374EbW3YjcOcRpAbTpc5lNKEQMPUZUctifZsBqPlhP9hb2cD/zh04dW+hIeq8NZoxMzGC58iBiDxzBUZW5nBu2QDXDx5F/KVbSPEPRoKRAapPGor4gGCYl3CAz7WbMDYyhLWVNS5v24duqxficN/hImZg27Q2zMo6IuD6LRj6h0D9KAgqM1N46ljUFABuw/vDwtUJcT6BuLVmKwwjooWbqiHqBKBRFewfMRWpF28LlZ1sZoyS3VrDxsoaD7buhW37xgg/dUEQteLbHRH043akxMVrApOODihSvxrizlxDpG8gvKePxM0T/6B8o3pIuXoX97f8nisJKFBELfFeZ5SoWRnRwWFw9nDHle2/w7SoHQxS1LgyeyVMwzVEVQq1pG0lV8TaWaLOyEG4c+AP1O7RCY8zIKoywU+1t0GJet5IUKcId8jBzRXBOw4iKTwKidGa+llv7dkTcW3PAViXcYTfr3th41EBKQlJMDQ2xFMff5hEx6dZWs1c2qCoLUq/3xXVhvRDqI8fjBJScG7uSkSeuCjms28+TdNc3x0rYOHlgu1dPkTrb6bh/pa9eOLjiyoTBuHxkX/h99WPAi8rbw9U/2wYEh8FIsrHH04t6yMpJRlXF61B6PFziDYxQJO5E/HP3GVIKWqDlsMH497Bv2BqXwTX9xxCh6+n4+h742DoYAf7lvURERKCJJUalmoVEo5dgNrIGB4DeyHy6o20GJMKBu5lUbRCWUTfuI/YBz5i/CL9gxH50Bcdp03A1cd38WDnYRgFPUGSkQqOPdoixdIc9zf8BjMjYzi0qAejpBQkp6YAFmYI238cpuZmUIdHCaLa1KdFvY74xwGINDWEZW1PFK/igYj9x5HyMHdTnwJDVBPnEnD/bDDKtGmYFnVTQvzA3V1HcOHzr2Een6xsPRCESjJQoVy/LogzBNxbN8OdPftRt1c33D5/FXYlHBAZFIIH63YigfPDtDA6a3Xt1xWGziVwbtN29Prua1ycOh+B1++K9VKFqK03LUfEjTtItjLFxYU/wNipOOydnRAQGoRi9sUR+vufL0TzUm0sYd+5GWq+3xPHJ81H7IWbmqCTPhQR6VSh2ao5sGlWA1s6foC31ixEQnQ0LmzZDY8+nXB/0x4E/2+XII6JYzGYV66ARBVgW90DKYGhSI6KgY19UTz85XekRMWgSNNasHcrj8iIp0i+8QAJYU9RpKG3IEnSfR9EHjuPFFMTmBezh8reGrY1KiP87GUkXr8PlZERnDq2RIWKrpplHKhFFJZawlDjlwk5S4qLFz+P7t6F38lzUCUmwZAR3mK2cO7dARFhYUiNTYBBWCRi/QLg2KK+qM//0AlEhUeghKc7ov+5DAN7K5hWLIuke75IDg2HUTlnmHqURUpAGGIu39IuIeZUFAoMUWFoAJWDLVQ2ls+tpQp+PY1BckgYDFLT5oxpOHPADW2txXTR2MJcWERza2skxMeLJQF1cgqSI6OApGQBrlhFUwNGNlaAkRESoqJgVaIYEsLCkRKfKOadKhXnMyq0Xr8Uf02ZDZsG3oi9/QiOZcrg+rETMCxTCq0Hf4g/Ph6fNuA6LjOF1cQIlsWKIjYgSENkfSlpE3yjkkXxpJg11A/8UcShKKKsTBAXGQ0zMzNYBYbD4Gmsdny5hMGfaDsrWMYmwCgxFcZW5kiOjoMqJQWphgYwt7dFcmISkp9GaUhmZQ5DU1MkPY0EklOFAhYejYkJjKwskBQVI8ZbuKMW5jCzssxiBDSDFBv+FGBkXrM+AxgZwsDCDAYGXPhRQUVZio2DkbWFqJtKhZ6XsZkZUmJioTI0FNFgNdtWp8LQxBQwNkRyTNybtTyjUXLPFqTTrSNrwdbd1KCjGNOCO88cTA38SgRXd1FbWcTmb831ypq2sqDN9bPWa5fAmss7Z8/h8HdrYZ2YAjunUqjz0QCEPfbFla9XadbudJxaTe81WzOU/+oPT3U2jigKKoONBc+PWRp8adeLdWndHS/p1jufWzvT3eSQvp20QVV8spfJUrrh0wyVVrlqlnE045v2bGkbZ0S8QVyniTRqpSDdc7+G5dNncl/QUrFkKuQvFYA0SMTSpiZa+8y5UWrUWFMNuM88aN0qFcIyWKU2UCywZlGdIX+x4C7G5tkSjlYDP2tQWHgGp57bZaUvjE3b/aNEyp9hnbZtTLFYWjwU9aYDkLKpR5fAGpWatXXU7tHWjeBnfqui/HUj/GI400RFaxzS7YZ6ZjR0nkGHnW80UfVGnuWDSgReAYGCM0d9hU7LSyUC+oaAJKq+jbh83kKJgCRqoRw22Wl9Q0ASVd9GXD5voURAErVQDpvstL4hIImqbyMun7dQIiCJWiiHTXZa3xCQRNW3EZfPWygRkEQtlMMmO61vCEii6tuIy+ctlAhIohbKYZOd1jcEJFH1bcTl8xZKBCRRC+WwyU7rGwI5J2q6V86SzIzFC9MJPoFZvoykbyDnzfMqh22kvc6V1TtVIlmb5t0t8a6sbvLqvOmgrPU1IpBzompf6VQjycIUnuM/gn1Vd1wYOx+JD/1eYxdlVRkhQF56vd8LsdFRuM9cuErm/rR3mpNNjWFsago1M1xAkwy64oe94bvvTyT6BovPsnq7UyJfcBDIFVH5GEnmxvCaNBjug3vDMDEVv9TsDJOQyILzhG9QTxIMVYgxVmmy/gPouXMNIoKCcGDI59qM7EUSUmFsaYl6382C3/UbiL1xHy7NGojjPYp3bYawExeA4AiE37yLh9sOIDE47A1C6M19lGwTVZP9QOctfbUaSeYmcB87EJVHvgeDhBRsavgWTB+HPpd6882FLn+fjMSs8H4PuI57DwbM+cR840WsoU5NQZJyZEayGvtr94A6PAIW7Rqh+bIZCL5xF5EJsUgxUKNy66a4d+YC4iOiEXPuOkJX70BSQEj+PohsLUcIZJuo2trT5qYplqYo+9HbqPXFcCSGhmN/z0+RcuXes/wyOeqOvOllCBD2SoP7ikyNmz4ci6ePfNHrp8WICnmCveNmoWrvzqj9UT/sr9kd6ug4GJS0R4p7GZSt440q7/eAiYOtyBTPM3Nojq+u3oJrUxbDNDZRgl4IEHhlogqemprAcVB31J0xEtGPA3BqzFxEHTsLA5EaU8588mLctUT9fDCub9+HxCcR8Hi3OxKiY3Bv5yEU9/ZEqfo1sadKB5Ts1AJVJg1GqK8/Ih77o3SNqgBzQFkYQZWYClVyKgyiEnB9xlIEHjgqRywvBuw115kjoqqK26HVru9h6VEeN1dtwa05P0D1JFLMmyRVX/MIpVWnS1Sf42eQHBmN0u2aIDEuDoFHz8C2kgvsPd2wy6sDjCzNYfdWCxRvWgdXt+yGU6uGMClmJ2pizMkQKsT+fR7Ba3cgNexp3nRY1vpaEXhloorBNjGC01tt4DFhEAxMjHFz8U/w3fg71DHx0qC+1uF5Vtkz1/dj3Fu/C0mhEXD9qKewqD6b96Jo3aoo1qQOdlftBHXIE5g0qQH34f1xe/Me1Js4GPYVXZ7r2a1vfsK1mctkPCGPxut1V5sjorITKnMzlOraHJ4TP4KBuQmuz1+NR2t3vpCU+nV3WF/rU4jqNmUwDJm/NFkN2Jtpzt+IiAPMjQFzU+x0b51GVG/U/uZz+Jy7ggrN6+PO1etIiIqFsZkJKlaviuD1v+Pal8v0K0l4IRaeHBNVLLebmcKxWytUnjoURlaWuDJ9GR6s3QEjsaYny+tEgIjaeXvCtn41BJ+8CHVUDBquW4Do0DCcHzcf1uWcYOlWDo9+3AY1TwpoVhOdd36HCN9AmBexRmpgOFITkqA2NoSZY3E8+P4XDVFfZydlXXmGQI6JqkxGeQximb4dUW3eWJjY2uDie5/h4Y6DedZhWbEGAZ5O1uaPdYgMCMGpd8c9pxyZPNy8Q2NU6NMJt37Zg/oThuLUB5PxyN8Xwx6eEhPVWwvX4tr8lZKohUSgckxU3aBRskqFcu90Rrl2zXDo/TEw51lOsuQpAsS/aNM6SE5IQMQ/l14gHBUodyOZ2FjB3L0c4q7cQVJ8IqLKFoM6OhbWYdEwSaXfLKP0eTpQr6ny10JU9oVDTuEwVrayvaYOymqyQCCzMHva0RAipqCz5fPZWRtpe34lyAUegRwTVTxZeiGRazP5O+DZwPu5dyeU67UfZqOC/H0i2dpLEMgdUSWsEgGJQL4gIImaLzDLRiQCuUNAEjV3+Mm7JQL5goAkar7ALBuRCOQOAUnU3OEn75YI5AsCkqj5ArNsRCKQOwQkUXOHn7xbIpAvCEii5gvMshGJQO4QkETNHX7ybolAviCgOj5juXzVJV+glo1IBHKOgEqtlu+k5Rw+eadEIH8QkETNH5xlKxKBXCEgiZor+OTNEoH8QUASNX9wlq1IBHKFgCRqruCTN0sE8gcBSdT8wVm2IhHIFQKSqLmCT94sEcgfBCRR8wdn2YpEIFcISKLmCj55s0QgfxCQRM0fnGUrEoFcISCJmiv45M0SgfxBQBI1f3CWrUgEcoWAJGqu4JM3SwTyBwFJ1PzBWbYiEcgVApKouYJP3iwRyB8EJFHzB2fZikQgVwhIouYKPnmzRCB/EJBEzR+cZSsSgVwhIImaK/jkzRKB/EFAEjV/cJatSARyhYAkaq7gy9nNycnJYKoqY2PjbFXA6xMTE2FhYZHh9aniQGLAwMAgW/Wlv4j1GxkZ5eheeVP+ICCJmoc4X79+HYaGhqhQoYL4TXKqVCpcunQJsbGxqF+//nOt+/v7IywsDFWqVBGfk5yHDh2Cp6cnzpw5g169er3QW5Ls6tWrsLGxEWS7c+cOUlJSnrvO3t5e1GlqaoqkpCQo/apcubK4btWqVfjoo4/Ev3l/XFycuJ59ZTl48OBz9VFh1KtXT0vu27dvIyEhQdvvPIRUb6uWRM3DoT958iR27NiBoUOHYs+ePfD19RXCf+XKFUHUunXritZLlCiBMWPG4OLFi/jxxx8xYMAA1KpVCxs3bsT58+fRvXt38fmaNWte6C1JRaKVL18erq6u6N+/P4YNG6a1rsePH4eDgwMmT56MIkWKgMT+/fffsXv3bnzyySfw9vZG8eLFERISgnv37mH58uVo164dWrdurSVqnTp1xDOwPH36FKdPn8Z3332Hn376CR9//DE2bNiA0NBQTJgwIQ/R1O+qJVHzcPxpvebOnQsrKyt4eXkJq8hC8pGojRo1En+TLB07dhSfkXT//vsvZs+eja5duwqrxfsfPXokrmNp0qQJRo8eDVrgIUOGiO9o5VavXi2UwPbt2/Hzzz/j5s2bmDFjBnr27Cl+FFc7MjIS+/fvF8SuWbMmihUrhqCgINy4cUP8pqU3NzfXIuPu7o7Lly+Lv9nW559/LvrZtm1bYfG3bt0qiZqHcsSqJVHzGOCIiAjhbtL9JDlYKNwkS48ePcTfJCytHUtUVBTCw8MFyUhGko7E3rZtmyAvC93cUqVKCdeY5CJRnJyc8N577wlib968GfPnzxfX9enTB4MGDYKlpaW4d/r06aCl57207myPrnizZs1EP+mi82fkyJGCiKyPhD58+LC438/PD4sWLcLatWslUfNYdnSrl0TNI7B/++03dOvWTdR+7NgxQRCSloVuIl3QkiVLals/cuSIcCFpJenq1qhRQ8w1SZQTJ05k6vrSkpYrVw6dO3fG48ePhZWkdaZy4Dz022+/hZubm3aOrDT6xRdfYN26dcIlp3vMvz/99NMXEGnYsKHoF6+hdadSoOvbsmVLaVHzSH7SVyuJmsdA05p98MEHoLDTSioBGqVZBpgqVaqEmJgYYbVIVs4R+W9a0idPnoj5Ju8jcUk+FtbFeziv5Px1586dgkic7/7vf//Dw4cPxbyTyoDub+nSpbFs2TLcunVLuMcrVqxAixYtBDFp0c+dO4elS5cKS0k3nHPSsmXLIiAgQNTDz9966y0RGGOfHR0dhYssXd88FqC06iVR8xhnXaIy6tq+ffvnWqQlpfuplK+++koQjuRmGTt2rCAEXWUlYMN7aM045502bZog8/jx41G7dm0wAktrzXku55u0ziQWFQXdX7bv7OyMESNGCMvI7xYvXizcbBa6vwyA2draCo+A7jYDSPQKSGzOXdnuli1bpOubx7IjXd98BFiXqBR+zid1CwlJdzUjogYGBoq5I0nCKK1CVFpgWtT4+HixnMN5LF1fWs+//vpLzD/5PV3tBg0aCDIOHjwYRYsWFRFbWmGlkOQTJ04UwSHdQmLTCpOkvJ4KgVaVa7Zvv/22sOAdOnSQFjWfZEla1DwGmkTl0gkDR5x3KpZSaZZLMAwesZBQDAJxXlq1alURxWXk95133hHEIJkUMipk012euX//Ph48eCDq4W9a4erVq4u66U7zx8fHR1hgxXp+9tlngoxUImxbcc3p9jLAxb8ZsOLyDvvAOrl8RNJy6Yd1MsIsl2fyVpAkUfMWX0FMRlk5l6tWrZoQbt3C+aBCLlpDupQkA91Tfte0aVNxOa0jyUkrShea66wsnKf+8MMPYu7IH7rRnMsyAMX5Ze/evcV1nFOyThZaRbrPnLMyyMRoMSO5bIMucfPmzZ/rI5UMl3cYQf77779Fe5zjMqrMwjmyJGreCpIkah7iS0upREc5f+TGguDgYNHir7/+KiwUCcxgDX+4oaFTp06CUFyrpEvL+WZGRdndxB1CXF9dsGCB1noqmxoYUOIyS3qXlvNYrusyykvXmPNOEp5rpZyrUiFwXkwLzr9JwuHDhwulQ7eafW/VqpXYKXX06FGxK4l1cZ4sS94gIImaN7hmWCuXTF62XzejG5Qth6/aRd5H95aBId0lINbzyy+/ZLgVkd8p7XHey4gzlQADUHR/00erX7VP8vrcISCJmjv85N0SgXxBQBI1X2CWjUgEcoeAJGru8JN3SwTyBQFJ1HyBWTYiEcgdApKoucNP3i0RyBcEJFHzBWbZiEQgdwhIouYOP3m3RCBfEJBEzReYZSMSgdwhIImaO/zk3RKBfEFAEjVfYJaNSARyh4Akau7wk3dLBPIFAUnUfIFZNiIRyB0Ckqi5w0/eLRHIFwQkUfMFZtmIRCB3CEii5g4/ebdEIF8QkETNF5gzbySn750WgK7LLuQTAjkmKtN8KAm2mF+H56PktjD7HdN7MMNeVoXHMfD4hYxKesFn2hAe81BQC9OiMBcvsyww7xEzNjB/rlL4wjlz7zLptrW1NebMmSNyGP3xxx/PYcUXxZkVQkm/wrQv0dHRIq9RTgvTtjAn8cyZM3NahfY+ZjscNWqUSOLNlKWv0i99V2Y5Iirz8syaNUucXUKyMH0kc/KwMJ8PE0EzuzoHlwPysrJ3716RKJp5gCgQPJ/Fzs4OjRs31t7CDAPMuqdkGFAGTMnEl75upjqhEFNYv/76a/E1+8BDj0xMTNClSxfwiAamwWSqEmbmY54gRbhf1ldmAlTuYUa+vn37PpfQmliQcMzByza+/PJLcYQEU6ow5xATlvGsFh5BsWvXLpGniInGmLOIuYuYwIz9PHXqlMj4x2z1Sjl79qzIU8RUJ8SZbTF3L1O5MDG2ooSUlChKkjJewzQq48aN09bF65lehelXWBeJzBxNLBxX4qpk5OdnxIpKghkJlcL72LaSMyk7DOa4cQyYy4kpTCknxF4p69evF/8khps2bUKbNm2031GBMWUNE8Hpa8kRUZmvh8LCHDpKUitmsuPAUUj69euHMmXKPCfIvI55Yinwumk9mGiaAsI0lrTQzHCnW5hwmmetMIHWn3/+qT0ThXl7mHCLhQm3+D1TXDIrHwWUWfyY9oTCy0x7tEIkKgWPfWDCMabQZG5bWjAecETyZVQoPEuWLMHUqVNFJkHmG/r++++fUyh8Nj4762eSMloPCjNzDJF0THDNz0hcCiVzGZG08+bNE8dVkKjsV/rn5/1UaLRCTI5GIjH3L70Ofv7PP/+IA52IBZOTsX4qnvQnv7EdpgXl2TF8FiYzI4Y8/oIZBTl2JBHzNhFLJkijl0RlwrSl/J6E5qlvHHuOyasUphalNaUiZTG334UAACAASURBVN18XuXoSWbz54l0LDxhgP1nojal0FOgIk+fGO5V2i/s174yUQkYrQAzstMC8gQyCieTM1+7dk0Mtu4g0u2k9SCBmPqSwsiim4eHWp1HK9Ct42lkzGXL/LdMRK0UChDz/1BYeS+z8zGxFguTVDP5FhN1URD5PQnO3D/K9xRMFrZBD4CD/uGHH4o6KajMMcQT1Sj8tHC0hiSWh4eHIBwTWlPYWXgtrYLSPj8jUellEBtawG+++UYQgdadeXApnBkRleTms5L87CNJyMRizATIz2mhKdQkIBUN8b5w4YLou4uLi/BIaB05FlQ4fBY+H/vGf1NBsn0qQmYRJD4kDDFm8jVacbbL52HKUJKQ1zNZGU9qo7KjR8CDpDjdoXVmdsTsnu1KbGgJiTe9FnoxHAMqSI476+HUiT8sPGmOxzzqJkpjP+kF0Krqa+6mVyYqwaRWJOno2lLTM3MerRmPSyDRpkyZIsjLwqMRKODUiiTzypUrxed0e+gec6BonShotHqco1EoJ02aJAaUhKMrTKJS6yruEs9ToeZlIZFoJZiMi4SlIC9cuFC4miQVNTcLhY6Wh24X58PsD4WfuXeZeY8CTqLymAe6d1RGdPvoqrJftKgvKyQqhZ0ZBPk8VADsk5KAWyF+eouqENXMzEz0gYm0Bw4cKEhNDDhXZTpRWk5iSsLTfWXS7ooVK4oDnmhlqUjocpPcJDG9FCbtppXlc/JMVBKegs66FUVCi0riERMqU5Ke17E+KmWOKd1uKg5iSSvLjIokT/qs/y/Dhv0njnT/aZ35LLyXSoaFz00FQReXSo4pU9MXut70QJhrWB8PXc4RUTn4nBdRM3NwCR6FmYJMgSbwdMfSE5VkVoSdwPN8UFpcWlkKBQWULinnKBR8Cg01LdsiUWl1SEYW3TmqbjZ6xcWmAJL8dMkV7X/gwAEoP3Q3aVVoRehS0zpRWHXz01JBsH+0OhRYnuGiFLrUvF4p7C/n5iQqycN7mECbior9exlRWSePZmS6T7a9b98+QS6Sh+0z9SfdQQo7SUwrRLx5H0+H45yWbTOIRHefpKLipMvKKQEJxfke+0uCUYHQUnJ8WBe9IMYZqKCYrJu40DOgErx79654JlpjWmsqLsYTWDfr43XZLZzW8B62Q0w4DuwLvS8qNCpYGgDWzWemUtWVA7ZDpUV8dXHPbvuF/bocEZUuJQWFmpfuKS0a56UEnkEUuk2Ki6JrUSlQ6ecZtHq0FLSQHBhaPxKIAkPrqdRDojLKScvDayiYyrGFJDrdPCoChaicBzJ/Lec6SopOHiNIElFI6KJTQzOSSuvEZyGheF4L56t0OUkMan+SgT9KkIbPQBdU9+QzZY5K15endtN1U+aimRGVrjUtJIWeRKBiIAF5YBMtJj0RzuNJGnogVG7EhcSnFSK5OB0gkZT5uJJMm8qKFook4DUs7BunIrS6dGWZFpTYsY+cK5LAnEKQwCQNseZzcjrAwnuoVOk5vQphGKBiTIO/KROcFnCqwbEjBlSUbEuJVbB+Kip6KSQoPR8mHacy0i36Eg3OEVHff/99MbB0ZxjUUOapTODMgacGV469V4jKoAhBzyggQOGhpSVRWTKao3JAaR0ZFWahYlCigPyO8yqSkkTloDMwRIGmhVcsKvtGASRRmRibVp0CwEAPlQuJQbeQFovandad31FgqUgoFFRMPHGNrjNJqRROBUh6tsn7GExjUIbWiwKakUWltWOdrItBJE4jmPSa7iGxIqF4H11OKgxaSHoY7D8VGPurHBbF6YZCVM5z6U3QfaUHQiVDUnCeSeXFoBLb1A0m0W2mcqK7rJylyr5xnFkHn4OF9VLx0RLSBeU1/IyuNscko0ILSUVIzIkZx4QKkQqJeHEc2S5lhMqNc1ESmphQ6XDM2Tdey39zSsCgFhUXx5lHatBdJqH5HG/iPPaVico5EonIuRBdFpKEloAEIFgULAoyP6PA0L1SLBqjhnQ1lUI3SLFABFg5gVuJIBNwDgYFi+1ysPiT3vXlAFNo+B2tPSOeJBaFgS4y+8D5J60WXTBeT5ddGVBaLQoA/+Y8ifexz/whaSmMnE+RvLyGgkyh1y3KEgc/o2BSAVBw2DYtD+9jm6yT7iPdeuVZKJRsn3iw31QGtMhUgLQwVDCMBzCgwnvpgfAakoXZ90loCqxCVM7laXmJG9umcqT1JQn4N3/TlWdAh8/ENhjMI8aMJzBgRBzoWZBEVA60zjyDhsqCcQZ6LyzEhvVR6Sgxg/RkZbyAVpqEV4JTxIPPRbefCo59oeLntZxS0WNj9JwKi14UC2WHz0lFTLwoa1RuvJcyQzwZ13gTyysTNT0I6V0PJXCTHa2mXEui0Gqkz+qeGeC03undoPQukfK3bl+ycpUyep70a7hZCUJWbaS/n89OAdONpLIOKoz0mCh1K9ixLt3+KYckU/h1r33ZeFDBkvhcQtK9hpaXHgdJktlYsg1OfUgUelqZFd0+6/ZbuYdykB6DrOToVbHOauwK6ve5JmpBfTDZr/xBgEThj+Id5E+r+teKJKr+jbl84kKIgCRqIRw02WX9Q0ASVf/GXD5xIURAErUQDprssv4hIImqf2Mun7gQIiCJWggHTXZZ/xCQRNW/MZdPXAgRkEQthIMmu6x/CEii6t+YyycuhAhIohbCQZNd1j8EJFH1b8zlExdCBCRRC+GgyS7rHwKSqPo35vKJCyECkqiFcNBkl/UPAUlU/Rtz+cSFEAFJ1EI4aLLL+oeAJKr+jbl84kKIgCRqIRw02WX9Q0ASVf/GXD5xIURAErUQDprssv4hIImqf2Mun7gQIvBaiJo+DWQhxEF2WSKQZwhklfI0Ow3niKjpiSmJmh2o5TX6ikB6ouaEuK9EVIWQGf2WZNVXMZTPnRkCuseLKgRN/zs7CGabqEqiZVbKf/P4A/7mgUH8kUTNDtzyGn1DgKRUjmLhv3VPJNAlcVa4ZIuoCkkVYpKk/GHhGSuvcqhtVh2S30sE3jQEeFQHzztiIVH5Q/IqRM2OK5wtoioWk795ABIbJkGVw4/eNGDl80gEXjcCNHI84Es5X0c51EyxuFm1lyVRFWuqkJQnhpGkWR0elFXD8nuJgL4hoJCV1pVGTrGu2XGBsySqMgflbzZAraB7wLC+gS2fVyKQGwRIVh4NSkPHKaPiBmd1yFamRFWsKeejdHlpTVm5ctBtbjos75UI6CsCPHuWLjCtKl1gJcCU2Vw1S6LSkipE5UG8PNiXlcsiEZAI5AwBGj2eJ8vDrBWiKsGll9WYJVGVCC81AIlqb28vNIAsEgGJQM4QoPGj+0uiKu5v+oOk09f8SkSNjY0VR9Jn5U/nrPvyLomAfiBAovJkeAsLC0lU/Rhy+ZSFEQFJ1MI4arLPeoeAJKreDbl84MKIgCRqYRw12We9Q0APiKqGGiqo0g2tGnjxM7UaKu2F/Idyr87VakCddo1unRnVl7E0Zf/KF+/X3JubGjKTcK6BZ2cPKdsXRa0GAXsOB37GXqp0+5mux+LPDEdAZ1Re/D6r59b2K4OxzR9mp/Uw7fkodwKL19D4G0/UkJBQWFlawNzC4gW4fHx94ViqlCYireL/M4aUkWvuruIyE8vNmzfhXqnSSwU0u+Py8NEjlCpZUixiZ6f4+fnB0soStkVss3O59hrxlhI1UDaIGBoWJjaqlCxRIss2kpKT8eDBQ7hVrJDltbokUwiVHu34hHgYGhiJ9s3MTJ9TGi+7J2Nlpnlb68mTJzAxMYW1lXWGbOEyYnR0tIik+vr6onz58kI5Z0ytrNQEEBAYCEsLC9jY2GSJx6te8MYTdcPGzahRwxseldxfwGbsuIkYPXokTE1N8O+/p+Ho6CiuiY6OQZUqXrCz1RDizJmzOHf+At7q3lX8/dmUqfj0k2GC5Fx8tra2Ejuw/j52AiS1okU1wqUZ4M6dOrxAyNFjx2PEp5+gbNky2r69bBmLgrdsxXeoVq0KmjRqJK6PiorCsRMnUSIDUiXEx4v91bVq1sDJU/8gMCgISFWjdetWOHDwkLY9kqVduzZCWEnmvXv3ISzsCd59p2+GS2qBgYF4Ghkl7ue///fTOkyaOOG5+tzcKgocLly6jOTkJNja2CI5NVlAQUtLobO3s4OLC4mhKY8f+8DHzw9VvLxw9dp1lC1TGk5OmvFISU3FwwcPcefe3bSrn1E8NSUVtna2aFCvLu7evYeg4GBxDcl+5uxZmJmZw7t6NW07DRvU1/47Kioax44fRw1vb4wdNx7r1697TvlevHQJ4eERAhcqx8jICOFEsHDzQbt2bWFqYiL+psJauOgbODs7oWLFCqIelYEBypUtK+Qvt+WNI2pqagpu376LR499BDZ/HzsOFxcXOKcNerHixVCjejXQmv24dh06tm+HxKREzJ33FSZPnigAPnP2HDp17ICKFVyRlJSMI3/8iWvXrkMZ5EePH4u6y5QpAwtLC5QvW1Zo72+XLoeXRyVEREYKcrdq2ULUt2HTZmzbukUIp1I43kM/GY7GjRqjZIni4uNiDg6oWrVyhmPq6+ePEydOol69OihbRkNsCseYcRPQu3dPxERTQWiUgqGhgXDab9++g7mzvxTtVHB1xQ+r1+Dfk8fx69Ztz7XRp3dPrdW5f/8BLly8hIYN62doVe/eu4/gkBDRzqKvv0G/Pn3g6FhK1Mc2+Xn9enUQGhIqntuA71MaGYm93iVLlhAbX7hwHxcbh759emn78fHQT/HJ0MGoUtkLGzYRK1t0aN9eOAK0fLdu3RYEfr6o8SQ8Avfu3cdX8+eIMfLz80dMbCz++PMvtGnVUvQ1NjYGJUuUFDvk2rRuicioKNy5fQcVKlTA/v0H0ahRA7zdqy9OnTiK0NAw3L9/H3Xr1sGXs+egXNlysLUtggsXLyM2LhoN6zcQXVi6bAW2bFoPOztb+Pj4YeaXs4VCqVOnFgwNDAWRt2/fiXnzZqNJY41izU15w4iqRkJCInbt/h02NkWEYOw/cFC4qeXLlkF4eDguX76C4cOH4dsly+Du7o4qXp5i99SHHw9Bz7d7CCzv3L2LIUMGw8PdDf7+Afjm26V4550+uHTxMqhllWJmaoqmTZugZcsW8PX1w+49e9G3dy8EBARg45ZfMHbUCCG4Q4Z9gtU/rIQdiarjQQ0ZNhy9e/WEk7MTVGq12A+tCH36QaUVDA4JRd/ePbXbMUnU2XPmYfr0LwRR1/60Dn16vQ0rK2s8jXyKrdu2a4k6ftxYjB4zDju3/6pxg9OXNO84OSUFq1f/iGrVqqJ+vbovXEZLRYGcPXs+YuPiRHua+jSmxq1iReFhREQ8FQqBZOBm8hMnT8HE1AQGBirEx8XD2ckJffr0EopMY4mc0+qCULKbt/yKt3t0h6tLeeHhjJ8wWeORPudDq1GtWjX4B/hjxvRpYvZ+8dIVhISGYtnylRgzeiRu3ryFoKAg1K1TB9WrV0OJ4sXw6NFjfP/DKkyYMB779h9A44YN0LN3H5w88TcuX74qvIrJkybgy1lzULachqgcdxtra3hXr479+w8gMioa8+bOEopoydLlqFOntpCB+IQEPAkLE95TvXp1BYbZmfdnReICQ1QFf808PE03ZyRQmT2RGohPTMDOnbtQo0YNVKzgIrS6cH3d3eFPAm3agnFjR+P+vftY/eP/0KZNSxRzKIZp02Zg2bIlQhL+Ovq3GNjy5cri1207cOjwEUyd8hksLS2EtlYKB4CDx58HDx5hybIV8KrsiciIpzh95ixat2opZGv9ho3Y+utmmJub4dulK7T3s946tWsJTa+UenVqo1mzJi885bbtO4Qb9uGggdrvSNT5CxZh8TeLxIbtT4ePxJxZM2Fra4ebt25g67YdWqJ27dJFWJL79+4hPCICwUHBMDQ2QlEx71Zj3pzZWoFasPBrgVnLFs0zRPuHVWuwbOX32Lzh5zR3XkPSJUuWYeyYUShTprToK61ORbcKqFa1KoICg1DRrSIMjQzg5+uPO3fuCotKzJISkzBixDAEBARi3c/r8fnkSbh95x6+/mYxvpo/G1aWVhBejDLV1kYT1IiKjhYKSUNUYNJnUzBo0AdITkqCjbUNIp4+RXJKslBkJqZGqOVdA0/Cw7Fh0yZ4eXoJV1kh6uFDB7B8xXfo3rWLcF9pUd96qztKlSyFZStWIvLpU7i6uuBpxFOhfAZ//CFMTE0REhIipiHz5y9EYtq2Wc55586ZhcaNG2le+M6KiVl8X2CIqu0nxzwpFUhKBgxUgKmR5nc2CzXazt92oWYNb1SsUAHrN25GzZq6RN2MsWNGi0GfNuNLjBs7Ssxn2rXvhNKlywiBL1OuDMaMHCGI+t7ADzF0yGA4l3bC6lVrRN1KsbKywkcffoD3BvQXRD3yxx/ib18/P6z5cS2mTvlcCH+ffv2xcvkSYVG1gR0A27bvRPNmTbRBKq0CyOBZKYyCqB9+oB10EnXe/AUYP34M7j94JKxI755vw8mpFKytrZ+zqBPGjUGb9p1w4+olREZGYfv2HWJu1+Ot7poIrU6g6auFX6OmtzdatnyRqEuXr8S/p8/g/PkLGD1qeFrgRaNmd+zYieVLv0X58uVEX48fP4GEpEQEBgTi4SMfHD16VFgZK0tLdOzQFs7OpXHl6jU0a9oEVlaW6P/+B/j2m0ViisA+PXkSjgULFmLu3NkiRkAcWRTDuur7lXB1LY9Vq9doiKoGRo4egy+mfI6Onbvi1IljOPLnnzh+4gQaN2oEGxtr1KlVS9Rx+Mgf+PPPo6hcpbKWqHv27MKwT4Zjy8afRSuUDyrG0s7OmDl7rghwDRo4EJYW5pg+Y5aYKlEhtO/UFYM+GAhX13Ji/t2oYUNYmJvj1u07+GrhInh5eAjrnpvynxH1WYhfs+CQmpSMuAcBOLf0fwj84x+ofYNhVMQKKicHVPmoH8p0awkTe5vM3Qg1kJCYIIIudF8Y6KFQEmAGVlJSUoX7s+Crufht12788MMaVK9eFerUVNx/+BCDPngfDx8+FoGnHdt3YNHXCxEfFyfcKRI1IT5BBI2UN4Eo3LSmjo4lceXqdSxatFh4gVQWnFNSiFiuXLmKwwf2alxfncK5Y4C/P3q+3RONmzSCY6mSL33LaPuOncISDhr4/nMWdfqMLzF92hTx2WdTpmHi+HGY9NlnmDxxAvYfPKS1qKNHjsCUaTMw+8sZ+P77Vajk7gZLaytcuHAZn382AUWUSKUaWPTNYnh7V0eL5s2e6c80IpMwZcuWRYfOXXHg911pDq9GkU6YMAmffzZJS1TOExmpptVr27YNDA0MxFzTvqgdrl65ijGjR2nrpweybv0GzJ01UwS7GGCrXbOmZjlKBVw4fwG/btsuPAaCvOf3fYLcFVxdnhEVwIiRY/DY5zFu3rotAlIcMw9PTzRo0EAQqX69eqLNW7duCaIyONSlc0fh+vbt0wdt2rSCu5ubkLPxEyfh4sVLwiI2bNRQjDWfnXGLM2fO4Ispn8HI0AgLFi5ExNNIETOwtraBgwO9FI066dyp43M4isZz4DH+Z0TlCIv1SCKVkorgY+dwbfE6JBqq4dm7C86OmQ23/m8hycYcPgf+RpEqbqj92SewcHTIVDHROnKQKPRcThFR3zSLGh0TjVs3b6NGzRoCRGpMRl0vX7qM71evxsrly/HDqtUiqjlh7CjY2tqKZRmFqL/+sg2VKrkLQaSiCQwMQlBgIPr26Ymt23fCrUIFVKlaWQQ01vz4P2FROV59+/XHimVLYG//IlHHjxsjghG79uwR1pCucEaFczy6hp06dQDnxiwUjHcHvI9qVauI/ohVX7VKzAW5ZEJlMWf2l8JKdOrYEZs3/4JWrVrC3b2iUB5UHPcf3EfTpk1RN61dztc3bfkV1atVRQ3v6i/BWo069ZtgymeTnn2vAtau/QlfL/xKS9Rftm4TQaMitkVQtUplVK7siaFDh4sI89Il32iVLskwa848/LployDhkSN/4t79++jV4y3YpmFGotKav/+exqqeOXcetWvWEJFjuuIzZ2hc3xGjxuDLGdPQonVb/LT2R6EYbIrYwNnRCVHRUQJfZXWcbjHnqLSAvcQc9ZgwGmL9U63GsE9HgOPjUr48Zs6eI4jq5eWFb79dhi+mTEbtWjW1kXEGrdauXYfmzZuidhqWe/bsRZmypVGtSpXncKS77R8QKDDOrq/4nxFVcbUoYPF+Ifh37BxYOJdCleEDYGJsgt/qvQW3j/qi0pA+iLj3GKemfo3yHZvD4+PeMDTP3roj0eFcpIZ3jeeWZ5Rlk+EjxqB9+7bwYfDil1+FReW6ZkhIGKKjo4QbS8FViLpxwyaYmZuLa1g45+O6GaOmEyZOxqefDBWWgAT5ce1P6P9uP9y4fhPfLl2GzRt/ztCiThg3Vgj208hIXLhwUbiBGRW6kvQCKBxeXp6CmFyy+GT4SHTv1lXrDvJeDr6vv7+wJnPmaIjatUtnVPbyxI8//oS33uomrBMjrG3btMbu3/ehX1oElpaNws3lJCqql5W69Rvhn1PHxRQiMChQuHnLl6/EV/PmaIl67MQJYVFOnDgl3E8qlDp16uDnn9fD3d1NxAEiIyMxasw4eHp5oGaNGuB0wsLCEvv2HYB39Sro1q0rjI2McOMGcVwOL08PbZdSUlNEAO7GzVtYtGD+c0RdvWatCBaGhIWKKCzbqVe3DmrVqIHde/YgMChYKGE+a9lyZbFhw0Z8MmyoqJsBPeL807oNKF++LFLVaqEUg4ICUcG1AmJj42BjbQUXVxcRTDx16h8RcS5Xrqx4dq5Fs+49e/Zh5oypsLayes4TpFcy5Yvp+OLzyWjQQGPhsyr/HVF1NqcE7DqKS8v+hwaLpyL4xDkEHT4Fv8PHYe1SGg41KsOxbwdE3byPu9v2o9maubAqUyrbu3Mo/E5OTihevNgLWPz111HY2dsLoWEovXRpZ2FFDAwM8dfRo2jfrq2YswYFBYv5zcVLlxEREaFdD6UzwHUzCs+ffx0V82IGhhhwYvjfoZgDuNzBaLPumpvSkR07fhMDnd7SvmzQGBjjkpFGY6sQ/iQcGzdvEcs76XdJ0f1moKh9uzbYtGkLWrduLVwyCmhwcIgIJlWo4CqEi4v+JAiV58FDh8XfnLtmVjZv3oI+fXqLS/j61YOHjxASHCKCJ2JdOTFRRFvLlC4tlolu3Lwplkjq1q0t5p43btxAlSqVRVvnzl8U662cV9PaUhnSolE4aXU41WCGAy6d6K45//Hnn8INZd+VpTOuGXPtmFMdFiraxz6+ePjwIWrVrImiRe3BcecSkaa8uIOKS3henp6izYDAAERERKJEiWK4evWaIH/VypVx4eJFYf1reFfDgYOHxaucHH+OtZ9/gEhBxCUaKsL0hfKxfPl3Yulw8sTxYins5RstNHf/Z0TVdl4N/D1sOuKiotH22+n4Z9QsFK1bHbZV3ZAcH48LC1fBtl5VeL/TA8c/nY66i6fAxssl20RNSkoUxHvZi+uKZedaXUZvzCupZThnoVut5KtRwCOAFKT092dnO15cXLzYbJHdd3W5Vsuwv5LWhm2TkAxcPF+YQzlVrA+bm5mJ5Q2+cKxgoEnbqllvTV8oXKw3/Xw6/XXEIrtZO1hfdpJxpW8jKwy1XplOICzjezTBrqzqe1ExPVsLImYkH3FkUeqiteVyk4XFszFQ8lVntizD5avvflglFDzXul8+zShARN3ZbTBMi9mj/bzP8O+IWXD5uBeKNa2BpKhYHBo4EVblndFk8nD8PXAiqn85GjbVXLPyFF4Q3Nez4/IVm33Nl2ckaJkJ36sL5mvucKGvLuttgzl6xLS9wLt278WUqdNFgK9jh3aZKuz/3KKyz5emfIuwe4/QYtkMnB03D8kJiTAt6SDcId+jZ1Dq7VZwb9Mcp8bNReMfZsG6UrlXWETOI7BzNELyJomAxhozODh6zAQM+fhDvP9+/zTv5uWhpf+MqLr0ifz3Gk59vhB1509E2CMf3N68C7EH/4VB6RIo2ro+6owciPMr1iP02m20+mEOzB2LvTxaprNzgvE77nLhHJDzH84D0r3rIVwiui+cZ6lT1SiRtp1PCpREIK8QuHLlCj4a8gn69e2DoUM+FsGyrMp/RlTdjsWHhuPY+HlIjY5H3c+HoYi7K7Z7tEGl0QNR8d2uuL99H/x2/YnKw/qjROv6gNGLcyulPs6dqK24W4SFmwq4JuiatqTCPaeM6DEAwY3gDCrwLRBO7BlZ7dG9m/CSuTe4eHHNHlxZJAKvE4EtW35BUHAohgz+UBv0yqr+AkFURvie3nmMM3NWQBURDVt3Fzz8cStsaleBVVknPH3ggwpvt0fpHq1hameTaSApOiYGM2fNRrky5XD8xHGxQM11MBYGV+LjEtCjRzfxVsOK774XUTwuB8XFxYrtZqVKlYKPj6+I8rVo3jzb61xZAS2/lwgoCND1pXFgNsECv476wrCp1YjyCcDTM9cRePwsAi9dh4m1Fco0qYui9avDrqobDC3NMp2b0utNSU7G1evXceXyNWEl+VoYQ/J0erlo3qtnD7GcwmWAqTNmYtyY0WIhWwsigNOnz4i1ML5ZI4tEoCAgUDAsahoSIkqZqkZiVAwSY+PEcoKJjRUMzUy1u0kyU0EkanRUFEaPGY+WLVrg0uXLYucK19RWrVqDn35aI/Ztal7UVmPqdO71HZ02f302HJKoBUE0ZR90ESgwRNXGgJQ1sbQPtHuC03qdmaugXRNNTcGVK9fx1YKFYg7KNatiRe0xctRING7cULzsyz25Y8dPEnt7VRlMeQcO6I+OHTtIaZEIFAgECgxRdSeez6//qdNS82QnV5AawSFhYjN1506d0axpY5iYGGuBvnv3Pv786y+xkZtb6vg2RkZ7cJVcQAVihGQnJAIFYmdSHgwDt4z9/vs+eHi4P9s9owaOnzyJAQPehWPJkuK9wY+HDMPiALukDgAAIABJREFUhQvE616ySAQKMgIFx6K+RpQYtd39+16xh1e7zU0NnDx1Srw7WqpUSRw8eAg+vn54t18f8RKwLBKBgozAG0lUbqZmCg5uZNDut2T2h4R4sabKvbHnzp9H2TJl4VCs6EuzDxbkgZN90y8E3kii6tcQyqfVBwQkUfVhlOUzFnoEJFEL/RDKB9AHBCRR9WGU5TMWegQkUQv9EMoH0AcEJFH1YZTlMxZ6BCRRC/0QygfQBwTynKhMLsVsdnylRxaJgEQgZwgwyR4T6zFnE7nEF1b4k1leJpVayd6UQZv8iomg+MPKSVTuDiJZX8cZHDl7THmXRKBwI8DshkyKkGdEZWZ5poQsXbp0trPtFW5IZe8lAq8XAbq9Pj4+IisJX9F8bRaVFSsWlSkWaVWpCaRVfb0DKGt78xGgh0qXV+EQ361WiJpReltdRLJ0fUlU/tBUk6gKWZmcmjlps/Kt33z45RNKBDJHQJlCct86cy3T0JGk/OFUkiTNNVHZiGJVdcnKOSsbYWM040o2czloEgGJwDMEaNg4XeRv8ocWVJekShL4rJKaZ2pR2ZxCVMWqsjH+kKj84feKRpADJBGQCDyPgOKRkogkKX9o4JSf7FhT1pglUXkRG1PMt0JYJRqsfJdJ8FiOnURAbxFQLCUJqSzDKO6uMm3MzjEo2SKqcmaLoh10fyvf6e1IyAeXCGSBgC5ZFQuqa0mzs9SZLaIqLrAuYZV/S0sq5VQikDUCCln5WwkcZTUvzXbUN33zutYz/b+z7qq8QiKgnwgoFlOXmK9C0mzPUTMirGJl9RN6+dQSgVdHQJewr3p3tl3fV61YXi8RkAi8PgQkUV8flrImiUCeISCJmmfQyoolAq8PAUnU14elrEkikGcI5Jioussycokmz8ZHVvwGIKC7TpqdNdOMHvmViZp+WUZ3Z1JOO/EGjIV8BInACwgo5y7pbnjgRa+6NCPuyezFcd2WFatJYrJwCyH/Lff5SgmVCGSOgPJSi7KFkFcr2waza9yyTVRdy8lN+fybL75m9XqOHESJgL4joLzYwsQL5Av3+qa3sllhlCVRdbcKKhvy+daMtbW1TMeSFbrye4mADgLkUlRUlHjNLf3rbVlZ1mwRVbGmtKTUCiRpdnb8y1GSCEgEnkeAXCJZ6Y0qljU7Xmm2iKqb4IzW1M7OTuIvEZAI5BABJjdT3k3NTgbCLINJiturEJXWlJpAnkGawxGSt0kEAOGVxsfHCy7pEjVX6UJ107CwcuZKYuWySAQkAjlDgJxikjMaPLq/uvPVl9WYZXIzXbeXRLW3t5fz05yNj7xLIiAQIFGfPHkiiPra0oXqEjU2NhYODg6SqFLgJAK5QCDPj7SQRM3F6MhbJQJpCEiiSlGQCBQCBCRRC8EgyS5KBCRRpQxIBAoBApKohWCQZBclApKoUgYkAoUAAUnUQjBIsosSAUlUKQMSgUKAQIEkqjoNOJUCID/Q/lEIUJVdlAi8ZgQKEFHVgCCkCkhRiwOmVGSnofKxKu0frxkBWZ1EoBAgUICICqjjk+Dz5z8IPX0ZhnGJUPPMjZJ2KNu2CWzcygEGgrqySAT0DoECQVQ11IgLCMPd1Vtxe/dhlKrigYDfDsOpUW2EJ8QIC+v5aX+U69QM6lck64OHD2FvZw+bItbCIuu+FnT37l2UK1cORoZGUKt0vWtdX1v5N6285n4lF1T6V4yUz588CYeRkSHMzM3FadG2RWxgYmKaJlzPPIfg4BDx2lKRIjYaD4LehE7hZ6GhoShatChiYmKRkpoC2yJFntUj/qW5hxu2z5+/gMaNG8HE1DTt02d91tykRnh4BI4dO4EuXTqBuGsweVaP3jHgP3ng9OOSdSf+c6KSBqkx8bj7/Rb4HD4B90/eRfHaVbGn9ltwHz4A5Xu1w73Ne3Fl/TY0Xzodjk1qa0mV2dRV+e7XbdtRrVpVuFWooEVD+W7YJyMxZ/YMqFQG6Nm7nxBYyiwF+JuvF8HToxL8/f0w7NORiI9P0BKUFZmamaJF82YY8emnMDBQYfqML9G7dy+UK1sGly5fhYWFBYoXK4Zbd+7A3a0iShQv9hwRn4RH4KsFi3Du7HkcOLAHBulIqnR2waKv8cnQofjr6FFB+r59emsop1YjPiEBV69cE38npyRj+crvMWjg+7CytBSfORQrKhQRNYyiBPz8A7B8xUp8MnQInJxKpRFdBgGypsrru4KK8uDBQ5g5c1q2UxP9Z0TVzesbeeMh9vUchppTh6NihxZIuOWDvV0Gwb1PF7h+3Aum5RxxftoSxIWHo+a8sTC1K/LSB2S90dExiI2LF5TbtmMnqlSpArcKrgJpU1MT8X5sYEAgpn85G5GRT6FOTWaON2zeuF4QYN+Bg/D08BCkUyyd0t9BHw3BogXzYWdnq7VsiqXt1bsfPvpoEG7fuQczM1PY29nhkY8PypR2RqeOHWBibCSIERIaKkjarl1bNKhfD9Wq18Lli+dE30iolJRUcUI78+RMmTYNn02ciP37D4Bv+Q8aNBAhYWEo7uCAh48eYc68BRj+6TCoDAxhZWEhlAyVzbVr13H8+AnMnfOl6Gfb9p0RHBIEjZajJdWoJL6GePL4UZmB4/XxMMuaAgOD0LxlW/Tt2xtTp0zO8npe8J8RVXHFKLi3l2yE34kzaL5qLk6OmY3g4+dgZG4qSJIcnwDXUf1hW9oJZ6YvRqufv4aNezmNC5ouGMy/E+ITsPandXj6NBIODkVx/vxFODk7CYsWGRmJsCdPMGvmdHw5ay7q1KmFyl6eSE1JRacu3VCqVClRZ0xMDFYsW4JqVatg5XffY8+evXgaGYnklBShBIwMDWFlaSEI37p1K7z/Xn+ER0SgZIniQkGcv3AJ5ubmKF7MAXfu3UMld3dBLJL339Nn8NO6n9G1axc0bdwYdL+rVKmM3n37491+fdG0aWOYm5th/ITJmD1rJr5atOg5ojZoUB9bt+8QAxwSEop1P29AxNNI3Lx1C85OTlCrU+Hj4wtnZye0bN4MXbp0FlC/9XYvbN/6SxqR01xstRp93hmAlcuXSKJmiy6v5yLK9YWLlzFy1Fh0794FQz7+UHhgmZX/lqhp6zB7e4+AysIU7RdOxb8jZsF1UE84NK6BpJgY/DFoEsxdSqPx+KH4e9BkeM8ZB5sq5ZWJ1QvPRguxc9du1KxRAxUruGLDpk3wrlEDnu5u8A8IwMZNWzB2zGhcuHgR8+YvFEStU6sWvl2yFGPHjhbW6NyFi+jWtYu4PyoqGtevX8fNW7dRsmRJbNu+DW5ulVC2bBk4lioJd3c3FLW3x3ffr0LTZk2EJdu77wBq1vAWFvH69Rvw9PRE1cqeKO/igoWLvhbWlXPJkOBQHDh0CAPe7Qe6wkuXLEPVqpXR/a1umDptJjp37IDf9uzREpVK5sbNWxjx6TCUK18OTyOeCtLzc/ajVImSsLSyxLbtOzB65HCheJTSrUdPTJ444QW8Zn45B+vX/ZjmIchQ3euhYua10OtJTVVj69btmDVnHr5e+BVatWyeqRv83xJVTLaAIx9MRLJajTaLvsDpEbNQtF412FR3R3JsPM7O/w62taug7pABOD7kC9ReNBnWlV0EEhmJFedtP61bj/i4eBQr7oDTZ86iTJkyKFW8OCIin8LfPwAzZ0zDsWPHsHT5SmHVUlNT8OvW7XB3c0N8Qjwqe1WGq0t5vN3zLRw+9AdOnDqF2JhYNG7SCIcOHxb3BAUHY+fOXZg/dzaqV68mQA57Eo6t27Zj1+49mDZ1ilhe+mHVamHpOndqD2/vGvDx9cGZM2fRuXMnPAkLx6JvFsOtomb+XLq0M1q3aiHSbPj7B2Ls+AlwcXURRN23/wD++PNP4ZL369cHdra2+OvvY7h96zZsbKwF0aOjo0WaDkfHUoiLjUW5cmVRq1Yt2FhbY8D7g8ScOn2hJzD4I2p08/yQUdlGGgIMJHLsAwICMWH8WHh5emjk+SWxiv+UqJq5HeC7YS9ub92Lpt99icvfbcSjA3/DMlmNBJUaiabGqDd1OCL9gnB5+c9ot2kxbFxKv3QDBIm6fv1GqAwMULJkCRw/fhLly5eHs2MpPIkIx9079zBt2hScO3cOi5csQ7s2rQVRaQUnTBiHE8dPIlWtFpa2ZYvmuHX7NkJDn2DP3r1o1LCB1mOPiY3BL79sxU9rV8PcwkJEXFUqQzx4cB87duxCp84dxLU7d/6GenXroEWL5sKV9vHxwekz59C5c0dB1BUrVqJqtSpikEo5lkKDevWECqLW3bHzN2HdP5s4Afv278fJU/9gzKiRcHRyFMGnY8dP4PSZM9iwcRO8PD1R2skZIaEhOHfhAkoUL47p076Al3Dt1Vj87VJ8MWXyc1pbM3WQgaT81h4xsbGYNHmK8IQmTxwvSMqApKZk7NX8p0QV/VIDkbcfYn//0ag8oCfKdmuFmIBgHOv+CZx7d0SFgW/B2NAQ56Z/i2LVvOAx8l0YWr5c+yu5ZaysrER+mQ2bNsO7hjc83d2RmJgoAjmOjo6i4enTv8SYsaOw9dftwlKuXbMKq9f+T1jjwR8Ngo2Njbju39Nncerf08IVVVZyOWed/9UCbN74s3iMyZ9NwXsDBggXdNLkzzFmzCjxOdv7cc1aYWG5DPP4sQ9Onz2HLmlEPXjoIPr3f1dneJ4Rh88ydfpMTJo4Afv37xfBpA8HfaDpg0qN5OQUHP37mLC27/Tto5U35oBd8f0P2LThZ1EvA2pF7YuiWdPG+S2Tsr0MEFj87TIcPvIHFi6YK1YEuOqQVfnviUoqJKfg3i/7cXziPNSfMBRuA7pje7WOqDR6IJxbN8Kp8XNgYmqGmnPGoIg756dZPdaz7zds3IwaNb3h4e7+wk2Dh3yCO/fu439rV6NDh87Czfzg/QGIjIrCL79sw+7ftgkL9PexE1i2YiVcXTUuN0tifAL8/P21RKWGHDZ0MMqUKY2uPXpixdIl4l66zNOmz8Cypd/C0NAAnCvGxyXA2soSyakpYn3UVigETXn77R4IDAzArj17hXaNiYuFhZk5EhOTRKCIyoeP/++pYyLYduSPv/DVwkVwc6uorYN5lDl/3bRhnejDpyNHY8zIEXBxKZ994OSVeYYApygc9+Lpluwya7BAEFWsu6ek4s6v+3F13ndICA2HSVwiEg0NYGhmipLN6qLWjBGwcHF6ZfC4/ujq6orSzs4v3BsUFAyHYg5ITEjAoUNH0LlLJ3ENicDJvuasD+DBg0cIDApCvXq1ta4Jc0H9vH4jhnw8SFg2X19flHJ0FAGkiIin8PXxFXUZGhmKuaKFucYL0N3HrPxbt2OZ6aD0myL498OHSt/qaqthQO3A/oPo1rUzoqKjRRTYxcVFRJ1lKZwIFAyiKiLMtb3IOAQcO42HZy/B0sYG5Vs3hrWHC8AlyFcxpWnjkdGOH2WotHuO0vYVizXIDCbz2ZnFiXVW3pvRDqNMe/7CKwg6kqRL5Rd3LWV19oj2OTPoU+EU1zep19mRqmfPW4CImm4QMpPfN2m85LNIBLKBQMElajY6Ly+RCOgLApKo+jLS8jkLNQKSqIV6+GTn9QUBSVR9GWn5nIUaAUnUQj18svP6goAkqr6MtHzOQo2AJGqhHj7ZeX1BQBJVX0ZaPmehRkAStVAPn+y8viAgiaovIy2fs1AjIIlaqIdPdl5fEMgXojLdJbMWyCIRkAjkDIGUlBSEhYWJ3ErGxsaCT/zJ7MUMlVo3hWC6dvkVK+UP34uMi4uDpaVllsmbctZ9eZdEQD8Q4GuVTLrHpHl5QlS+G0nC6iba0g9o5VNKBF4fAgEBAYKgTByQJ0RNSEgQmqB48eKiEVkkAhKBV0OAxi44OFh4pjxZ4bUSlZNfWlLmKaL7y4TSTk5Ocq76amMkr9ZzBDiF9PPzE9kl6fYygwiJamBgkPs5KknKH5KTRKVVJVn5GXPjskFZJAISgcwRIGcCAwMFKckZWlMSlaTlZ/zJVTCJASWFqApZSViFtNQIdnZ2ovHsphORgyoR0AcEyBu6usw4SY+UxCRBFZeXJFWIqsnp9fIsW5lGfQkmG9ON/pKsbFT5TXOuXKMP4MtnlAi8CgIkn+LakpQ0bPxJT1Jek1nJkqgkqWJVFVLyN4kqSfoqQyav1VcE0pNVWTfVdXmz8kazJCrB1SWrMmfVJWkmS7H6OjbyuSUCWgQUt1axrApBlXlpViRlRdkiqi5ZFeuquLuSpFIiJQJZI6BLVl2CZoekr0RUXbKmJ27W3ZRXSAT0GwGFqAoxswoepUcr2xZVuVHXgkprqt/CJ5/+1RDQtZ7ZtaRKC69MVN2uSaK+2kDJq/UbgVclpy5auSKqfsMun14ikH8ISKLmH9ayJYlAjhGQRM0xdPJGiUD+IZBjosqgUv4NkmypcCOQmyBSjoNJCkF111PlFsLCLUiy93mHgLIMw91IuhvvXzWw9EoWNf12Qv6t7FnMu0eVNUsECjcC3G7LH5JTl7CvQtZsE1UhqZKWhQ3yLQBZJAISgewhwFdEyR/lZfFX2fSQLaLqurl8c4YmXGZ4yN7gyKskAroI8LU3ThWVF8azeg8123NUXXeX5ptawcbGRr57KuVPIpADBMinyMhI4Y1m911UNpOlRVXeluFvviyuvKH+Kv51Dp5H3iIReCMRIFGVDCl8kVz3TZrMHjjLdKG6r7XRmjIpEzWBLBIBiUDOEKBnyiSBtKpKcCkrFzhbRFVeFKd/bWtrK7SALBIBiUDOEKDxi4iIEHEeGr30SzcZ1ZolUXUTcJOo9vb2kqg5Gx95l0RAIECiPnnyJO/y+tK35pEW0qJKiZMI5BwBEpVHWuRZpnym4ndwcJBEzfkYyTslAsKihoaG5t3ZM5KoUsokArlHQBI19xjKGiQCeY6AJGqeQywbkAjkHgFJ1NxjKGuQCOQ5AnpBVPGanYr/Z/p/dRqo6Y8CUEOddkV2UM/oauUz/lZa09YlPkprWw2o07rC3VriU7UaPJ3ghTtF31/sq3ig9IXXah70pYUL55GRUbC3t8v0Mbk/W2xS4bEJ2QFEXpOnCLyhRNUI7OnTZ1CiRAmxPHTr9i3U8PbWkfln4kciB4eEigVld7eKzwHOYNjde/fh6emBoMBA3LhxE/EJCeIa7hLx9KgkTqnjWSG+fv7i3JD4uDhEx8aK+mJjYuDhUQl1atcWry0dPHgYHTt2gIGhpn9enp6wsrLCvv0H0K5dW6FIdKnBnV0bN22Bi0t5NGncKMP90rzm/oOHcHZyxG+7duOdd/o9T640/rLPwSEh2LPndwwc+H6mBLx46bLY/lm7Vk25RztPKZi9yt84oiYkJuLAgYOCqL//vhc9e/aAp6cnZs+Zj7atWwpykThlypTWIkQQLl25hvv376FH927PIefj44tRY8fD1aU8ihQpgurVqsLKylLQKTo6GsZGhmjbpjXCnjyBn1+AEGoek7d952/o1qUz4uPi4eJaHlUqeyE5ORWbt/wCkp8WbfuOXahatTKsraywa/cevPdefzRr2hSlnZ1EH6hA5sxbAEtxHLwRvLw80bRJY9EGv1P2Tj99Gom9+w+gUcMG6NW7D06eOPaMhGo11m3YSIMNUzMTREfF4OrVa6hXr6645uHjx/h02BBYmJvj8ePH+O6H1aLtBw8eIjYuDl6eHuJvj0oeGNC/3//buw9ou4qqD+AbktATQAGlGKoUpYSuIEgPvUkNKNKkShXEQkdE6Yh0QREUkSIg7aMXJfQQWiCEIqGEEqUGCEm+9Zsw8eT6Xl7JueElmVnrrffevefMmfnP/u+9Z+99zmmfVJWjakdgiiOqqqjBg4ckoC76w8Wx7jprJ2t4zrkXRL/ttknu3BxzfjFmm3XWOOKoY+KZZwe7yyA++PDDZA2/+MUvJJJvvtkmsd2228QVV/0tRn7ycSy66KLx2MDH4/Vhw2Laz1zRMaPHpL433WSjOPucc4MVUtr14QcjYvCQIbHM0kuOW7Af7rt3EvYPPvwgXhn6SnpL17nnXRAbbrh+zDnHHHH0sb+I4487Jr70pblSbfQnI0fG3vvsFxtu0DfWW3edNL6LL740Flhg/thk4w2Twnnt9dfjT3++LHbbZZe48eb/+y9R7707nh08OO64467Yc4/dYq999ot+228XJ558asJj/t69x43riiuujDPOOC1mm7VXPPzIo3HOeefHnj/YfdwmAZmHvfFm3H33PXH88ccWN7h2CravwymOqNkS+f3rk06J5ZdbNlnUv15xZey3797/RWWaaeLnhx8Ve/5g15hx5pnjqScHxYsvvRSbbLR+PDv4uRj83ODYsV+/2Ha7HWLwc0OS5Vx6maXj4IMPinnnmTsJ7NBXXotnnnk2Nt1kw2Ql7euefPqZOOCAg2L0mDGxQd91o1+/7WKeeeaOWWaeJd5448342c8Pj75914tTTzsjPhzxUUw/vbshuiXr3HOWmeO7O/aLueeZJ8499/z47ZlnxAIL9I5BTw2K6264IQ7Yf7/4xS9/FY8+MiD+fu3VMfSVoXHmb8+Ogw7YP+646+5YbdVVYuttt4u77rw9br75luS6fmfLzeLdd9+PXXf/Qbw9/D9x6R9/n5QJT+H8310Y3//uDrHyyiulveijjzwal195VZzwi2PH9yqGDo3zL7gwjj7qiELU9vGq9qOmKKJyB997//3YYYfvxbA334wRIz6KU08+MVm99TfYOJVfLb7YovHTn/w4Fl1s0TjiyKPjgP32iZlnniUGPvFUvPjC87HZppvGoGefjcefeDx23H77RK7Hn3gy5p13nnjqyaeS1fnPO/+Jnj17xbTdusU3V14pNlh/vXh92Bux+x57xQZ9+8Zqq68aZ555Vuy7z97x65NOjs023SQ22qBvzNKzV7w8dGg89ODDaZ878tORsd46a8X0088Q22zbL6664vLkVt9//wMx77zzxQsvvhCrr7ZaDBgwIP502V/ip4cdkqy9MRn/mNGj45Zbb4+HHno4Flp4oXFEve7aq2P/Aw6OS/74hxSkOubYX8T2228Xs8w8c+y0866x5FJLxicffRIH7L9vzDffPNGjx3TRrXv3RNTTf/Pb+O4O47u4bw0fHk8+9VQce9QRtQvg1NphdevSHgy6FFFHffRxfPreB9Gj1ywx7fTTJSEb/e4HaT/WrdcsEdO2L/6YQUASASQW9YorWdR9Up+sh/jKgQcdEquu8s2YYfoZ4qWXX443hr0RK620fLzy6mvRvfu0sevOO8cxxxwXw958K3r17BkzzTRz7LTTjnH6GWfGvnvvFW+89UZyg2eeaeZ48KGH46xzzo0F5+89XpT2xZf+FVtvtVX07DlL7L7rzjHio4/i9tvviLPOOS9Gjxods87WK1mpZ559Lvqut07svtsuaT/8zrsfxIUXXRQH7r9vPPLIgNhnvwNj/t7zpTU95eQTY565505/93/gweh/3/3JZf7Wt1ZNe9TfXXB+9L///tjl+zvFiBEfxnPPvRA33HRj3HjDzbHc8svGOmuvFX+5/Iqwn19vnbWT17HM0kvFw48OiPPOuyD22nOP/5GdWWftFQsuuEB7ZKoc0wYC//7Pf1Ld7iILL9xurLoMUUe+934Mu+W++M99A2K2PovHPFv1jdGvD4+Pr7wtRo8eFdNvtHpMt9j8EyQr8o385JO47Y47kuW59trr4jtbbpks6gm/Oik22GC9RAoCt9iii8blV1yZiNyje/cY9Mzg+NfL/0qBobfefjtGfPhBrLrKKimg8thjA+PLc88djz06IJZbfrmYfbbZ4uBDD4uFF1oottt265i/91eSMum74SZx1JGHV9zDMXH+7y6KffbaM5Hh01GfxgP3P5T2lg89/HAsssgisdKKK6TF4urqSwTZ+N559/3PiPrDePTRAXHl1VfHccccXVlY76CNtK+2h/znP/vHaquNJeq111yd6qvN9c0330wRbXvZtddea9zYYKXf9fv2jZlnmjHtff1/w003xc9+cli7Bagc2HEE7n/wwTjuFyfEMUcdEcv2WWa8NW0tt9ZliDr8iWfjiSPOiO7PDo0es88Sy15xZrx/zR0x3cXXx8fTjIlpv7dR9PruJjHNDD1aRYbwffLxx/G3a69Lx9in9dt+22RRjz7muFhrrTVSonLxxRdLFiTtZ/2MHh0DBz4Rz7/wfGy5+WbjYfXhhyPixptvSUGkUSNHxkorrxT39+8fc8w5Zwwf/u9YYYXl4hsrj42grrfBxrHbLjt/lgvV95i46upr4tAfHRTLLbdsvP/ee/GrX58cP//ZYXHGmWfFLD17JgK7U/fNt96K/v3vj2OOPjJFX196+ZW4/u/XxzbbbJUCQ3feeXfssftu4+beZ9ll4t577o23//3vGPHhiBToWnTRryaX+4jDfx7TTDMmkXXppZdKUeW+G2wUF15w/njYnXzq6bHjjv1iuT7LJEt/6aV/jiWX/Hp8w561tKYhYHt24omnxJNPPR0/OeyQWGH55dq8Vpch6gcvvRKDf/W7GHnfYzHjQvPFEucfFyMfeDJGnHBhfDjNmJhx9y3iC1v3jejRbcKT+qyYAHF+feLJiSBjXd+rYr9992rIUo4tQBg9ekwMfPyJeP7552PLlJ75b+Lxvfffi3vv/WfMMeccccMNN8VXvvKV6D3fvLH66qvFowMeS8+Csu/V1t9wkzjt1JPHG98Zv/lt7LbrzrHcsn3inXfeiYMOPjQu/N25cc+9/4xHHh2QUizGKvgkD/qdLbeI54YMiddeez0pgjnm+GIi0Tv/eSe+/OUvj+t71VVWjqcHPRsfvP9BOpdlnX666WL4v50z1pr27Nkzes//lZhxhumTEjn3rLPGG9vpv/lN7PS9HaPPMsvEW2+9HT/52eFx9m/PSA/RKq15CPC+3n57eFLWAwc+Hscec2QsteTXxhartNI+N6KO3Uca1dhynDGjRsXIF16N0YOHxjS3/OBoAAAgAElEQVQLzRPTfXW+iI8/jdEDn4vRI0bGtMssEt1mnyVV98hh5r3mhHat+UZbqRBajMvaWlM0ICXC+lQbgHwnEAXcbt2mTfnUnMs0j3yv7dChQ2POOeca73xFD46fYYbp061KXFFFGCLE77z7bnw68tN0vD569eqZbgxWGDFq1OgJSopo8diHyLV+GHxzrtXYqkR3FlLP2qtXSvW4ptuoGo9pnrhO3T1bu2uvuz4OP/LolJbbcIP1UvS/yxHVgBLlxkwTI98cHkPOvizeueuBmHnEJyloM+sqfeKLP9wh3hs+PB4/7KQY023aWGyPfjHHGivFmB7dSrXM1C3nk/3sH3vs8dhp591i9912jj1+sFubzxT73CzqZzSNeHdE3LLxbvHFdz6MWbtNFz27++kR3aaZNob17B5zHbt//HvA0zHotIviP6NGxoK7bx19Dt5lrFWdoLMw2a9lmcAUisCQIc/Hdv2+F9/5zuZx8IH7R/cePdrMT3/uRB05YEg89L2DY/Zpe8QsPaaLXt17xIzdusdHoz6Nd2JMjNpqrejRe+4YcMRp8f4nH8drM0Qc8MRtY935Sg1rdU3zw7+rn2X3tOqq+t7eztPduKcKAfIziavnch/bepSMggXuscoox6v9nWuusW6wx9HY9/n8tddei/nmG5tmqbbnnnsuRYFbasbHjbc/dr49aN5Hus57770XvXv3jqeffjq++tWv/o929r2KLONrqT344IOx4oorjvcVHLjts88+tnifq24cM800U6qqqjZbA9/7roqzIhBFF/kRlzltVh3HsGHD0jO1nnrqqVhmmf9GQJ3HHa82czAG24PW5jI5cPuii34frw97Mw46cP9U8NKe9rkSFds+fWZoPH/ieTHLtN0TQWectnvau44Y9Wl8wG6u1ie6zzNXDLrw8vjok5Hx1rSfRr9LzowUKm2hEQZCTXAQTyNIhIjQiagSQKQgVOpyCcA888yTBF7ARxDmvvvui29+85up4sj+btVVV00PQUZs7dVXX03nEBoBpdtvvz3t8dZdd90YNGhQPPnkk7HyyisnUiKo4/395z//OdZcc820X6Uc7Fed9+ijj8Yaa6yRrm98xrTAAgskYRXk6t+/f/Tr1y+uu+66+Na3vpXmYq5/+9vf4qWXXordd989Tj755Nhkk03SeKR59Gnu+jcneLgBADEQ+rHHHkvE//3vfx8777xz6g/hl1122fjHP/6Rnh4JN0rIePMdNfpxDfvZa665JuEGF2PKj4U1F32/8cYbaT1gaQyIufjiiycMze2OO+6IlVZaKc4444z46U9/Om7N4JCxdiziZqI//vjjsdpqq6X+JsdmHrBsVHgTmsvnSNSxFnHMRx/Hx0OHRTdWK6ZJBQQMpYGNYjVnnTmmma5HjBj2VorOjowxMefiC6W9bUv+AouGjAQpWx2Cb6GRk+Co9CFEtDOBYPkQhvD6nyAdfPDBSfBff/31uOKKK5IQEVj9aIi51lqqiqZPgJ922mnpuocffni8+OKLybr5fP75549VVlklzj777Nh2222D9SJoSLzwwgun67rONttskxQHZYCUhHfJJZdMZEM0QagFF1wwKY0555wzFltssdT/xRdfPE4ZICCrizx77713us6zzz6baoeN0/8UDhKzyv5H5PziLkrLtXbZZZdxigoJc3lk1aIivLuSrrrqqnjhhRcSdhlv4+rTp08MGTIkKbJbbrklzS1bxCOOGFvhdOedd6ZzzJWyueuuu2LXXXdN1vWee+4Zj6iut/rqq6c1pJwQf2oKfH1uRB13P2cL7mv1/kw3bmZOpvtK7Us/ixa35PkiKoGziFljcQ9VgiDv8ccfn0hioWls1oqQcaUIJJLNPffccdJJJ8WPfvSjJLis64YbbpgIpBkHwWLxNIJG8PWNqK770EMPJWK7pj4JGVIh90ILLZSEEVH22GOPePnll5Pw6cf1CPnf//732G233dK4Bw8enMapWTDjp0woDUrkG9/4Rho7QnIfKRkWiiXL1jm/t4QbTnn4HEmNO1tBXsCNN96Y+vc5ZUChUTqO0X8mrZsUeBTXX399mh9yIyNLYd68hUceeSRdC1H9ZnGRmlJ64IEH0t8bbLBB3HbbbbHFFlskK47cm266aVJM1jI3fyM97PRvTdZbb73J0aB2asyfG1E7Ndp2nGRCDz/8cLIquSHWnnvumSwJS0hAWBjkZIVYLaTkshLEpZZaKvbdd98488wzk8t66aWXxiGHHDLOmur31ltvjXXWWSddAjHPOeecZKlPOOGEOOussxLhCPtGG22U8rhHHXVUIp3rIg2iEG4u3C9/+cvYfvvt07W5ho5BKN9xm5H4r3/967j5HHTQQUnRUEj+5gLuuOOOqX9uNaJyZ3kDl1xySVIACHzooYfGPvvsE0svvXTyLAYOHJiumVM4yEDBUUKU13LLLfdZqmhUsvQIyX2HGeJSIIh67733ps+yEuN98BS41sbEvT3ggANSX1zr7PZZK+Ps27dvwtC1KU/uNgytlx9Kj9uPvIiqwXuvvfZqh0RMGYdMcUS1LISPELIABMVvwkkYaG3WDBlYTsJBkPbff/9ENEEdLiaLtN9++6XzCQrhqxL/pptuStZAY5ns21hhhGbBWV/uGotK4H1+7LHHxhNPPJEsEYWxxBJLpO9YFMqBcCMJIjsmz+WUU04ZL3jCBeU+IuLll1+eLKA5cpW1rbbaKllago1ESKe/iy66KFkr/7PmMGAZq/Py980335wIRcE4PwfTkBPZCI3GjWaFr7zyyrRH1pAQHnC9//77k+KB34EHHhhHH310Ivi5556bjqUskNn4bQmMESaa7YB9rv8p3Y033jgdj6iub362ElNLm+KISkgIGjfM4rKmBMlE/c8SchlXWGGFca+BdAwSIxEScHNZ1FNPPTUJEALb82lcQddAEi5nbtzM008/Pe2x/K0vx339619P+yoERObLLrssWSUBG9bCfpNSoSA222yz1L/jWGOWkoW54IILxrMeP/7xj9PYHPuHP/whBZfss/3YYyO2sWQi2Duz0P7nBTj+hhtuSO4pq93YzM1eGPGRGVF5ACwod9+Yc2AHUSktVpwLT0mxrvpGQteiTJCeArIWsKRYEJBLjHxwZ13h7nxBt+pzbCky14Qbt5ciaSl6PqUSd4oiqoVkTZGElq42gQouYI6+EjrWMu97kQJxCCXLRqBEcP/yl7/E2muvPc7lYgkJ7eabbz5eysZ+jMvGKrCkFIW+CaA9HnebG0xANXsxnxmna7NEXMtqSoJl18/dd98dyy+//LjpUETbbbddIiWhtf+laASOXMuxCCUQxJ0VvdV4CSyd/SAcXDe7rI0CLrrMmuWUUXbLswLJx3O/4c19ta+mkBCRkkJ259ujjq07XjopTONENPjDjNdh/wmrZ555JnkZ1UbJ2H4gu31z9mZaG/uUSNYpiqhT4gJ9XnOiOBCpq0VWudJIzWJPTa0QdWpa7TLXyRaBQtTJdunKwKcmBApRp6bVLnOdbBEoRJ1sl64MfGpCoBB1alrtMtfJFoFC1Ml26crApyYEClGnptUuc51sEWg6USWrJdzLc3gmWxkpA+8CCMhrK7RRn45Lqtf85DrtloY4zZhcztPCt75SDeNH54iqvjPfgNwF5lyGUBCY7BBQmqlqrWlEVUqWn0DQ1lMSJjv0yoALApMAAW6vem0ln/nuq9otKqKqE3WR/PS+STC3comCwBSBQH4kjntw1Ymr6a7N9U1PZ/jM9XWnijtAuMCeCKBgPT8iZYpAskyiINAkBLi6blRQc83lVeNcJSoPdaL2qJmoLpTvT0RWf+cHUyFsR54Z0yQsSrcFgS6HAOPGgjJueMOCZpJyfbPbO1FENetM1GxVEdTF80++/7OtC3U5BMuACgJNRiA/QRNXWEvGLP8gbNXtbSvmM8Gor3nkiyHq2Ke+j0okRdgcEc6P5ZxAALnJkJTuCwJdD4H0ipPPfrLlRE5k9b8Mit/tMXLtImqVrJmcmbTVh1Z1PajKiAoCXQOBTNRMzkaXd0L7UzNok6jZqlbJmt1hv/Mzd7oGHGUUBYGuiQCr6Sdb0KolbYuk7SZqI1mRs+ruFpe3awpHGVXXQKDqAueHy2V3tz0k7RBRq2QtJO0aAlBGMfkg0EjW/H97Z9Au17exs+o7XYo1bS/U5bipGYFsOTtK0IxZp4iaTy4knZpFr8y9owi0181tqd+JImpHB1qOLwgUBDqHQCFq53ArZxUEJikChaiTFO5ysYJA5xAoRO0cbuWsgsAkRaAQdZLCXS5WEOgcAoWoncOtnFUQmKQIFKJOUrjLxQoCnUOgELVzuJWzCgKTFIFC1EkKd7lYQaBzCBSidg63clZBYJIiUIg6SeEuFysIdA6BQtTO4VbOKghMUgQKUScp3OViBYHOIVCI2jncylkFgUmKQCHqJIW7XKwg0DkEClE7h1s5qyAwSREoRJ2kcJeLFQQ6h0AhaudwK2cVBCYpAoWokxTucrGCQOcQ6BRRvUPjuuuui29961sx99xz/8+VPUupI8+HGTZsWPztb3+LH/zgB/GXv/wlVl555VhwwQX/p18v2Tn33HPjoIMOSt95Yv9TTz2VXq68wAILTBCB/HynPK6OjlHnP/3pT2OrrbaK5ZZb7n+u9cc//jHWX3/9mHPOOVsdR+MY8oHDhw9PL7ZdaKGF0jtKPErSe0kcv8oqq8R9990XV155ZXiv5m677fY//XsI+jnnnBPrrLNOLLbYYq1ef4899ohTTjklHnnkkfj6178eX/jCF1o89qSTToo+ffqk/rTWsHKc622yySbjHdcRbNuzpo39daT/liZIbmDm7YRk59VXX01yVJ3vAw88EF/60pdi/vnnT7K82WabxTXXXNMiHu+++25YwyyDra1z5yg69qxOEdU7Ui3SEUcckR4obKIvvvhimrwX4Fhkj+7/2c9+FgMHDkyvmAPO888/H4svvng89thjccIJJ6TJa88++2wcddRRscYaa8RZZ52VXuuYCbXUUkvFb3/723Fz3HHHHWPLLbdMP4D7xz/+Eb/61a/GHT8hBeFlVj/5yU8S4a644op4/PHHk6LJ7/0gNADfYYcd0jgb26677hq77LJLrLrqquN9deutt8brr78eSy+9dFrcbbfdNr72ta+lY+644444//zzk1KjkL785S+nV1YaC7IsueSSscIKKyTyE3pv+9prr73igAMOiFtuuSXNbd99901jRWLXPvDAA2OOOeYYN4Zf//rXSejuuuuupOi8aa+lBpu33norkX6DDTaIr3zlK+MOO+yww+Kf//xn+j+/sDq/WZ7ycY2FF144vZHMD2GE1U477ZSUtjbTTDOlebmOl13ntyrkF4h5Zaf5mFtu+vnud78bW2yxRVrTa6+9tlNral3Nqz1rygj8+Mc/jjfffDMOP/zweOmll5LyMoZMMjJNDn7zm98kOc5zzOO+995701pQsPvvv3/87ne/S8fBKTfrOWjQoInh57hzO0XU9dZbL5Ft2WWXHUdKgmaREMfALZSBr7TSSrHEEkukCSEHi3DiiSfGxhtvnIj62muvJYB+8YtfxODBg5MFIeyEjfAD9JJLLokzzjgjLr744hg6dGjMN998CVCazKs1HEtp6LP6GkiLdt555wUhnHfeeccDzFgsLCHK5CbsvXr1SkTIRP3e9743TlNaLEqIgHsIuWN/+MMfxnHHHRfzzDNP8gSMjXXt169fut7BBx+ciIaoSOhaxmxhaWBaPL8WnpKj0DReC6u6yCKLxJAhQxIGzoctRUa5EKbrr78+ke/73/9+Upa8DTj17t07ze30008Pym6ttdZK52Sisv79+/dPCsUPQT/yyCMTJoi45pprjsOLtaFUFl100SSIXssw11xzjYfnyy+/nLyJ7bbbLsmB9SHMBHX33XdPY6UcHn300XGK0djqXtOrrroqGYnW1tRLhClqWHzjG9+Ik08+Oc3D2nsdItkzbuN/5ZVXkhGByc4775yMyYUXXhiXXXZZ4AAZcaxrMjKu27dv37QO/ucJkYuOeJetsbpTRLXYm2++eVx66aVpIR566KFEQJMkpAiTiWqgNBhS/d///V9yHU2WFkVUoLG4BPmZZ55JluX+++9P2gwxLG7VehCwm266KQFJKSAjC9TYLAhgXYMAUQDVpm+uJCuRyc1ToCzWXXfd+OpXv5oOpxVdQ+OaI4S+WBMCaKEHDBiQhBOpjJXlZSW1q6++OpGF9rWg77zzTpqfcxDJdRCJ24sIzz33XCIm5WaO22yzTVx++eVx8803Jwy33nrrhNXdd98dLDnCHHrooUlh8DZgTTFsuummaR4PPvhgesM1vFnyTFREZC0oImPVnzHxlKwjTwO+lMmxxx6bFIrxIuqGG26YPIFq4zkZt2vCwkvE/vznPyf5oER/9KMfJWXB6q622mppzXPLa+p/gt/amlIGlMnErOkhhxwS1vmNN95Ic+L+f/Ob30wKBK7kmhf0xBNPJDk1ZvLBoFgbrjCZgQ8MjIWhMTZrhaS8Ghjqf/nllx9PfjtrXjtFVNrx5z//eRIME7b4BKiRqAhFuGgq4HDluDcms/baaydN/uSTTyZLwS3ifqy++urpuOz6cU8QxPcskev89a9/TfNlEZ5++umk7TTKIVsalhR4jrf4vmPdNCQjwAjDelQbxWLhWE6CSWtm96Xq+lbdPvMnzJQQy8OT0IdrGqu5+Pyiiy5Kmlu/LDKNzl2Fmz7MnWKgwX1Hsd15551J0I2VF4OEyO16yyyzTOoHpsbGijuPNSYstLr+KL1jjjkm/Z2JagzWxjmUy9///vekKOHHkvBSEG/vvfceb0/+y1/+Mimbxv0t78e4KARE5UGxPNaPsLM22U1kaRwDe2ualVFH1pQSgW+OV7R3TV2DN0XGKCiERD6yQtHC3nd+yJw1ePjhh5MMUqb2ro6lXJCUEvzDH/6QcOdpkCuxAO9EteXxed7Dd5akzusUUQV07D+4YPkNyjRRlag0LEtAaDS/WSvWIzfurnMIoEXj6iH1PffckzQ9oSGo3GfHWAxurP2thkCA4oZoLLl+7DtodkDTfASI0DifgOfNv70Yd9NxyMxtyY3rCHjC8J3vfCd9bFysnjFzUVlki8Ea8SSQ04KaVw4sUER77rln0r48ED+nnnpqGifhNeff//73SUi4zjwK3wn6IPYNN9yQjqPRCRUMWSd7XW6ZrYFAHKJy781Vn8hr/FkwX3jhhWR5EZWlsy8jROZmDSkxngdyI4/PjBl5zdu6sdqubd2r+9uMGcVhn268rmeLwwMRSzA+8QeKj/cFOxbcmnC7KYCW1pSQE/q8ptbM3K2DNTVOa8oQ+LutNbWFMneKc8UVV0xW0nmMB+Ky+BtttFEaCyVFybgej4Z8GDMsvv3tb6dj9ttvv+T55a2OrVnG3dZITKMq850la6eIiiAEjmaxn2PZGolKkC0WQtNKZ599drIkBEiwRSOUiImUghL6FXABDvfIAhAOE6bF9cnqIAa/n3ZzjvM1BEJae0Z9sxKIxqUxDkJv0Wl9nsDtt9+exq1vn2X32D6L66lxawinRpgoA8BTPMhN+FkTxMoWlbtLS/M6WHsWzRwIJZcTBtUmgAIjrqlFPu2005JwnHnmmYnAGkG0DaC0fEagkKhKVC4pYaPg7JXz3shYCSeSICorDx+kFvWEKzISYkosR665r/an5s37gQmSmVNjQK1RAJ2HmPrkSpoL4eYRmKO+Xcu1rbXra3lNrYfxc+0RpHFNnUOh3HjjjWlNs3fX1po63togFLeU5wAbri/Fddttt6X10siG4BdPxNh5P9aKosp7eN5BjtL7bU5k1nwZAcorE7ezJHVep4hq4e27LDjBJWAAAr59FU2HIDRVJgDhF0Dh8iAjIbYIXEFk4C6IOtKcNDLNTIvZfwJXY1UJMUujtbSfQQbXtsj2hP62qMDKL2GmHARl7EEoE40iydFI3+cADyEwZq3q+ponHByrHX300akvhOU+cY3skc2DZjYnYyNQ2XXPC7fPPvukvS6hIUD2/IhAYHglmuvp3+KzJsbXaFFbikjnazi/GkxqjPqaJ+FiAVnkfE1kMw57X30gmjUl1BNqxm/9bJO4p6wUwnMTq4GqSbmmWQasA/d3++23T3tlSgUJKTcYkGVz5cGYN+8sv9eUYjR3cuUYnoG+yFaOlfBKKKc6gkgZ404R1cBpGwLI9SNY3D2amBCyalxBBBOw4NsDx2dcBe4gUiCHPiyoH3sxWt++y0RZbK4eS8k1AZJzbOY1lhzIBLSlxqKyGHn/kI/hDUgVAVbQhVtpkYwzN+51Y444CykXtdpoZJ4FD4BmpoQogjxHCsi4WQBanHWsNvPlgll8UVBjNi5Ky/4IMQmFIAsMWBhuKYXXWqPJpbWyQm3tONZZLIEgmh/MGpv1ZYUoNmNF1EzmlvpFdm6l9bEvhSVXU4OJOVHaXPy61vRPf/pT2lO3tabmJ4BJRnk2oua2DOTOHMkC+cqBK7iQRVaUtaSIyThseS+2geIgXGIKiXdWbRQ2uZ/Y1imiEkyTqmrrtrQHIUXWxrB+eydA4+c9XT6HRWPFgdhS852W84H5GK6qBahGk9uTRGftkKkasaxeVx9cudaEmJBzPRsx4HkgZzW11F5c6jzO+HJOOffrs7y2BNUYs4cxoWtbb0LbWk7XuXWuKaVlbG2taXvW2djELchIzgE3rnNb8l7nuuirU0StexAt9ddeQCd2LK1dpzPXz+d05tyJnUc5v20EJud16bJEbRv2ckRBYOpBoDaitldbtfe4upegrutOTD8Tc25H8OjsdTpz3oTOaau/XK43qd3IjmA5Mce2Nf+O9N0potp/2P8JCtj/CZCI/uZABODtdfyWX7LxtrdT0CBCdvzxx7c4RhMTQJHbU544oSZqKd3S0iIL6Ii8CunnJlggBSDAldM5jf3bK5qDQEiu1c3H2FtKZuf9pICDnF1uglGCadWUiGKMXN4oWi06nr+3pxK4sAdsqQkgCWL47acjwmxcEvYCUrnBK0fPfWZ/bx+WmwAX7EVlBfukfgRc7P8VQPhcKso+sLqmrY1LrliQz5yrTXBJAEkQRr/VgJi9vVSIvSFZUPmlUsr+vaU11a+YgL1uS00/0mKNrRGL6veCk7CTv3XN6hpXjxNIkt5y/XyMlJmofG6ZqIKXcMCRzrYOE1UYWoIdWQkiMOTXRHPlzDTRUpFRUT1hedFCgiwUL2KmckcDImGqClDjRKQ3pFkQwx0iCik0EVBA+F6TsHcMIkkFyUsCMBdcIAxiqJklQM4VFAIsJaLl9FJjAEF+UrTSXBHYXEUFc5rI4krTyE3mcxFetJdSUlUkuqg6KDepFfjBsbFJiThWigO20gQdCTQJ2lFGfqREEFLUPBdhqAqTDpMjlH4QGUZE30tNwFBOORNdRNr3oqXmbD0RmyzI90qTNTZrbE2qFUww17c5GQN5UMAiMqqJ3EqBZXJJq1EEjAGc5L7hbL0IvUg72YGXPlUrIY9gnbVHtJbGRhbMPzdFKuaO8Io0RLWtmetY00Zl5DrWWfSdzBubACsFZ10FK3ODoXmJfMuzi8Z3pnWYqC4iF5jzh40XpRUJp4iffCqymigQTD4XFSC75DFrIVUi0cziKi6gZZFBDpEmypFDRRG0fi4CyNeu5jdVwSCkhVDV5Jqa6hefs7KUhpZrVll/xGP5pT0UVeRGS4oksqZILZUh6U8Z5AopKSQCKw1kAZXNqTZShiiVpVFcFiynluBRtWj5ejnHa06IaszSJjyE9ja5aYSgCBBUUp4nQ1AIvRpUXguC8jTkE+FEgVk355uzCiakUXFlTSnJnMqyFhSn1IR5uoa1USmW87UEnYKhOKyLfqRE4Mb7kM5S4STvqFFu0lquqQSSkoWzOVQbGbOGOXWi6EW6UC6atZQKck0EbImorDYlkZs1M2Z56lxpxApSYtbMnHlUMIEfpaDwBI5KVSkaqSFKvNGDMEZyo0aZ4qGgGiPr7VnXThGVpqRdEaqaqsjF6YRSIpiWoUEMzECBR4tbJMKuD7lLP5Lg+gMEt4tr4W+1txZUI7zOycLeElGR2PkEBPmATFEA1t9cLoupAVaqgfblqnGlGytuWA3uVyYqQeIVcP/MRcu5XkTlCrE6hIwwU1TydFxchQMss0opFThVYclzIWQWn5AZC8IhGEXW3gVmybmYhCIrA9flfmtwtW4K1K2ZLQFyajBAVuRlASkmBKBMKT9EU9xB+FhVColyQVRjVVXmf7nkbFGrhfyKW6T2kJOyRvJMVKV48LUeLDKFCefGSi7rr38KXP4dmVg+Y1U1Bm+4mwui8nisUW4KTKq3Tvoc2czLWChXfSIqcvK0HO88SoJiIF+ZqJSda6vY4n1Q1BQ8jNUAkD2ySI7JUiOZm0ZUiy+ZLTlfvX2M1jUpk5BzpBWBjigElbVCFkLI5aG9LBoNZ9FUh9gX0dwmbI/CBcy3IiEq4jfenI04CIzcvgOUxkJzRzRuoGvrK7vLXBf7H+4OjUi4s9Bk8BCKu5yJ6jdlYK6sNFfHQnHxzENxAMFHAucRGK6UhWNtlBeykDDiDsOFRs9E4SpVPQQKD14XXHBBuxfYmBWiqLJxDWPWrIP5qj1mtXgXxmEuxkrBEUJKBoEUy3MJjdnnBE6lkbWFgbkjBmVq3TNRzbXq+laJ6hwKzrX9UExwR0aEsibGS76sp9I9Lmy16Z8nBjdeE1dTWSqiKZQ3dhaQUkBUhCVbucGy8QZ8xTYMDLcWNpmoFK81ZGEpPuvEtUbCTNR8NxPZoeTIAKvLVacAkB32jiPn1Vxve0ia1m5MDr2194zPytksmH1iNbnPdchVQjQI1zYHlrIrYg+EbNxiAsmFsdD+pt0JPXD4/QSUMkAuAo3cBKOaRM/D51JztapErU7JOBCV8qC1c3MdLn396GcAAByqSURBVDaSsTh5v+T7bFGqRLUABN38CYa9sM8IBmFRFMCdI9gWm0vmOzgRuqzIWEcaOhd9C6wQKBaqSlRCrHYUBu0tFiEsLI6qMGTgUlaDKrS/63NBBYsoOWREIhaKxYWDH/EGytM8uPe5XM55eZ8PD/N2HQrL+f7Ot7XxBnhUAoSIY08pMMX1Rkx7XuvifzENFpOi5s0I7FF61cbSqX5imYxHfz5DaDdTkI9c39yS6wtHRoIV5l3lPShZpLApgExU7rqmHJSy54aTGfKYicrquw7DwL2lyMg4z8i65QDTJCcqQTDoRutjQtw5woaoXF/Wi9a2CASCdrIAJsEVJAgWxoQQH3BcKsQGks/9cF1oRXurHPxpSbdkonKjbfSzJqUpEZXQ+61ZVOPg/tqjcfcojWpjUTJRBXWQiYtL4QhyWVALY69mHoSUorG/8zmBZOFFEVmKqvvKHeUeExBYKTNUWlclKivFsiFXY4VVa7o1E5XiEQSiwfP9o8as1M04bAMoPmPj1toPIrjr+Sy7aKL7+kBC+Jm/86ylvbN+4G3Nub36tt6ZTBSV61s3Ci67gK6Vb8UzZ4qFh4VorLu5s+KUhNK93BgAXgq3kksKP+NDeO4yaw8DnkJLREVqikl0F+6i0JRrvk7em/oNP0rU3Cgqa8vyUrqI6vqubX0oOpaZx0nx84ZE7il0ltgWRn+tPQJnQrayUxYV8KJuLUVrAY+sJubGZi6ChTMJRNUsFuEnpMBmRYGsTtN3NDVyAi67vibLpSFAE9qr6ZP2s+ACNoDVHy2KoOou8/2r+skF/Fxkbkk1Gug8Qu2cTDLENScKAxEsEE+CQCErpWT+XL98+5U5URhcouyGwoFrb0EtNOVljOZXJWq+ST8LHAtCaPNjU1paXEJKiCg6+3AWQDSU5TAO42KFuHNcbQIt8ARr7iLX2bgIFuXheAREDsqUp2O+rKhtg6ASrHI6wnWqrm8uQ/S5sSEwpUbpEWzjcA3rn2UmE5VFZXVZ3NwoM+tMyRsHN9lakhEyw5o14lbFKd9jjFCUL2KTA8qah5THhLy59rx6vnV0PXtZih5OPCgeob+tlfN4HWrgbUP0mx/vMqE66dbI2imisnZclEy8aucIZt9AC1lwANhT0Ho0DIDt1YCN7BaPQAlGVBtBQTIaSLCJdSRU3IcJNVrYNZCuensRS5vJSNAaG8Gg/bhx5pcfqUGBIE9+IgM315hZXm4+4UBO+y7RcHt25KZ9kYPV9jcS+pwg2etoFEm+U4fG5YmwMuYrIIVkPrPg+Z5Y+zH7K4GX1nKYPBIEQryc2iK83DKk4V00Yq0vpMx3tnDLkdZYq9exbaAEzY17iSQ5hpD7RFhpIcRr9H6qdxAJrMCVRYYPDwTeiML1JS/cZYTIN4i7Bguvb9sIWQLbKM2ceWSwohDsV/Xd2FqSN8cYG6+C7FAiiEspN+JsnORD/5Q4cuatBflhrSlvcg8L4+RqMxCNN3RMUJgrX3aKqO3tvHpcZ6s0OnoegeeO0ZK07aRqE6qy6egcjNk55oL8rGhuFAqN3NZTFxvn3dEKourxLZ3bmTl1dC1au0ZbY2vPdVqbk30uRcDb6ShmLV1XHxQj5cnbbC2t2daYJxlR2xpInd+zVPaFLT1ytM7rNLsv3sGE7j5p9vWnxv5tEyjI1u6Q6gwmrHt77zpqrf8pkqidAbOcUxDoyghMNURtj6uW9xO034RK9nJf7elzQosv9SLiXMejOlwnPzhtQnXBEzvm1ubTrH7zNqAjtc5dmXCdHVuHiVpdECkTG24BiGrhg2NEEQULJLEFHvzkx54YrAiiUHouwOaqSnlI54hIigJWAxGiZsrQWiq705/AVn7EZ+PiGo/Qv6hxLg9siWyCI4JW0g/VMsIquNIQUjIilwIELd29L+KtH4EmAYXWmgCJ4gfBI25urpaxj8mpq5yXFggSVBLkyE06KT/YzWcCIQJC+TEhLQm3iLgfrfoMqOoYjUWhhGCfVIJrGKsgikBW4x5RsET0080ZOe/Y0pwFEclJW0pQEJESMw8pKZFy0WbR8MYmWu5YclSt+OHCkqmW3uTQ2IfChPzw8MbvzJXM2U4JeLWmMHKMwjWNoxrZdS4lmp+J1RmydoqobZWyiYYJz0v02icKT8tZWXwTVXlkMZAyF7EjoZSD6KnomySy1Ed7WktPsHc9ubyqUFlUub8coRMlFEZHgsZIaL6udIHIZ14IIXaEIriifSLcjYIrskd5VQuwRQNdQ/5RZLNR6DywTQWPNISKIiQR9VWGh5AimxSRSh6Rb+NA2lxhoz/RZefkSjCKz/zkcgmb1JNIvCi2MUuL2APbj/k8KziFJQpIRLalR/QhyCIKi7iNd4iIUEuHuE5LDZGQXUQ2p8fUBctfmldeD38rOPCdwIugoOuSEQUTlHFj0YfxS4sJslH+IqsMBMUsS0C5UCLOM4+ci7Y+ykbhRnEI9lAGDExuMJIvpTjJsYi7MVq/XEOOgK5BTvIzg43ZeeTPHKTTZDEUk7hGZ+IOHSZqXky5JAJLiKoRSKDTYrnkzqRYFqDl5+ZY1JxUtwisrrKuXFJI0JSUERiC4n9pgNZqYymCXBubQZaGoCmB6DsFCCy6RTTu/GoJx0uZCMk3NqWJBFOFjZwpDS8/yeJnologQqQuV5G/dILxiNQiqnyh+SMfnMyFAKgKUiLnb4LsWIIr/eEzyoNQISLspI4IGpLIXyIhi8gay2MiFeVkrHBGeFqdwsxWACYstLQNYVG1ZB3Mx5g1ikfUk1dh/goCCJi0lKIFSst4lCJqvAcpICmUfGugumBCm28koHzNXdoE2XNpn/nmPClvQbmptBPr6BiYU6xSVpScVFUep2tL6VHm8FX9ZOyUkTXg+VDM0oCsK8+FksxPDWRBeWksIMNCWSFzLj/NspBzrvpDOMdWH+ZOCcDZuqhaIsOIDXPK1PfGRN4oWJi2x8o3ymKniMqFscgmXS2QJ2AAr5bcyYkhIQsp+atxmfODrhVC+F4qhbATJrlHWk5JHo0HGIsnN1t1fYHNlfKAtHy3SZ6gSJuFZqXl6lg5Lh3NCVi3SOVnsbIwxtDYCA1NSjgJK61N09Oqmai0MgGhWMzJ3FgF8yDw8oGUmUYY9EeZUQwEQw6Sm0x5+W0xkSgXZRA6da0+k3LiZubXbUjI80rg4ro8nVyAofwPjlp+giBMKAJuvTlZJy48UrNA5ke5+ZtXQ8gQyzEUCwFUnOH62aWHLzL4ga/zkdu8YON4+WsY2XogjVI75EVU/RgnhUgBVJUKclkjcsGCsdyUSqPrTO5sR6ytdBZ5QCjXopxhSimy6qrBjJNiJHPOVaBgvspVcyosj8M65EfKsrbkJlt1SsScYM8gVb2KrJCzTMGRPJOdSVKZxGUFsP2cgdHg1UbzVYnKXXCORQMU00/YFUAQmHy3BmHIL4gi2CxtftMXl0bBAstBG+UnwlEYNFh2fZGD8tA315FAsNY0G8sCUIKsQim7YsbOetHajc0iExKamHZWPkfAETAXL7B43B9WO1s63gQBIAgKQ2h7hfoWyGfmQJtXlQ7LyC0kCMbM0iGnfB5FwqLCgIBbcP0jbnZnzRVm+QZwFTe2Gpp9o+MJi2oyVomHwQITWGukwAG+9q+EyfGsIKVjjeyvjJfVVGyQhc16E1JE5fEgFHwl/a2Lfatzrb/fFA0rak3zc5aRmUKnDHJBi1phfVsXCk7f5Ipb3HgzOGXvOzjp2z7d8fDglcCQQvc5y88L0rcab8eQOwrV+KynLYHGqtuSUT5k2Di493kvzPAgrXMa3f9MVDjiiu95DHCubh3+R+ha+aDDFpWWUmtJsIDP3as2VqhKVO6SRSEk3L/8FAjAOZd2BCZB40KpIfY/IaNRq40QE0waGIlcnyXMRAWABVKWiHz6RGYLiWA0KeAJRpWoBLK1krzqniyfa2z5WbUWmUsMD4upEobFZsUJeb5Fy98E0cJxxxGJ+8hTsPisFwVIwFXbUFasgD1qvjuDJdMPJQRLHgMyUwysFkXFHc5Khxun8FwVDSVizHBj7WBtXYzHuG0JWBv/w9Q1kdj62XOxugjCfa0+caJKVEETioILyOOiEES17b254/aSlIKgl1JGxIcVspAZsQvHUibmhGDZTcxENbdq0Eh/zhEvyC6pcyhlskX5kAvBOdfyAwPush+ywKpTxLwX7nou1zR/d0jl9/5YI+sMA8rZvpObz5PJFpXLj6Q5TmBNrClvxXzae2PFRLu+Oahij0qztvR6wkxUJDFJINpYE3RajMVwbn7TFRJz+wRLLKIFRCQTRLrc7K9MFDG4KgSe9mspmEQwEZXVIby5LI1FytZKcMN89ElrahNKA1gcexWLT+iRkHauPhHCghBWLpRr5+ixY3kT+lcXysqzNoTID7eKW4pEOdBCmRE4gqQ/+OQ3qiEr7azBgncj2MIzcYxG6AgrRYCMlBESwNjaEDIkRn57TWuS+6IAEN3eFEmVclIOXNhc+O4aVaLmdWrco1I8xm799E/QeRhcbGQQeNGnSD8srbuxVGMfYhSsEqtYdX2tJQVjT52DnDwP80ES19AnL87+UF0zTHlYPCTj5y7zwhgAljWvJwtIYfGgYOFc42RpEZjbm9/6YD6UX96PUvDIL0jIi2Nkqo/qaa8lzcd12KLmE1kElrX6JjVCb0AWlUYEKA1EqyIFYaUZCaB9FdeBQBB6fXHRBFZ8x0IAjjXM5NE3reTzrDC4wQSgcY+aiUpAEDU/OoQWpHHzO2W4X1xA1rm1RvBoTCSlRIyNO8ylze8pMT9/09iEhwVBHBbT+Cmc/HwgRBUoo7l9h2Q+4z5zPR1r3PZaBJNStH8i1ISV10FoENHem5dD8BAaKe0lCSl31L40v5JDIMw5tgfWhxC6Psttr0tIub2sAiXCGgu8USDcPuvmt2vmeypzMMmeOL9EuTG6bgtDUdpHCqrwqvTlesiSlb45ULw8KXPJ606JUjLZxc7rRFHnPX8mKW8H6fJN8+SFV8JLy2k/37sOjBkVFpmxMK78Fj7XIGOwQsx8oz050xfCwjJbSGtAoZE17j3iOt/xAn+50olrXk2xtZewnSZqtYidD85qEjiTtYiInF8raDA0swBKtsAIiHCsCQuL0Nl3z+kOmhWh8u10mZwWkDDkFAzra9OfI5Guh6gsmIXMt64hCsHgonGhuEpcO2OdUCP0+S6cxuPymBDSYuUXNRs3LAgnHKRn8msgWDOCAZOsvQktVyznZfWLKDQyolACxm0uUguux5UWbOGNEMz85Aqf+d5nXD4KU3+IDhNWVTpGtJqgsnCsBoXqmEwQyi0/3DzfEUQpNj5xgdBTrhRpe2/Fa6+AOo6yEXFFuvwYnUykRi+omipraa3qLJxoTMvlvic0ho7Mu3psp4na2QuW86Y8BHgZlCqrXMebyxoR4m2wSjyMqbUVok6tK1/zvKv3nNbcdXLj2yqyqfuaXa2/QtSutiJlPAWBFhCYaKIKddvb5Ac4tbYvsMG215jQg53sVQVjGp8ymPukWUXi8sbcXkAUsbHO037S/koYPz8psbp/zf0JUhgPbW1/mftuTXuLeNqDCohUW+NeRVBBZLW0gkBdCHSKqPYMuUm/CHAIythM58ebEHzRX4EKaQpPXZD3yxUtjhVIqW7uhdKFtfOLZFsivXSCYgHNvkU0UFSzmkSWcBcsEYQSNBK+r5Lf2PyInAouCZiIXorw5Rfo6l9KqfrMHYrEXDPpRTmlFITuKYzcRBlFEnMaQdBsQsX5dS1m6WfKRaBTRBVO1/KbtlXNyPN5RAeiSi8QaFFeEU5klRrIjyBxrgimULZcpyikUDuCiXRW82RyT4jLignzu6YoMysqJ4po8oYIjviOl6AXHhcFpSAUH+RopHFIP1A2EthyaBL5osisYA63UwYixryA/LT9XHYoxG6eOS+mUMG1W3q5ryCLMXb2CelTruiVmXUEgQ4TlUBzdyXJWUyCjUhSC3JpUiX5CeksjXpUeTeWN1tRFknyXLI4E1C+EClyEt8kuKK5kF2aIj8YjKvJYiFIbkgmN5eJqvJFCgmh5GmRUTpEYYGENzfWmOTNuNKso+/MgQLIzy5yh40qIWPPd7I4B9mlXjTHcLelmHK6xuesrDSUMsfGp/t3ZJHKsQWBDhOVJZSYz+Vq8oH2lYig8ghBVM34H0Hk6RAw303jc4Lvc7lXBQ8qfST0qy9vIvAS3Kyhv+0nXSs35YfVxDErTgFQHCwqi6h4AhmVsnFv5TLtH+VY5S3zy4VYTK4yL4CFp3hUnXCnJerzrU9yjRSHMduXy1/mulNusnOqBdeKE2wJWnsjehG/gkB7EegwUXUsUKMiyb6r6qYqlUKAvFdFDK6n0jvusooZpFbpgTAS58iGJMijWic35JQ3U+LFiiNQdW/MmuZXSjhHJY1AD8JSCqqGuNxqWBVic8MVRcj1IZ5yslw2aB6S/8ZUvQMCkVn+3Lj33F4uPuXjbg9F9vm5xZLx1YJx5ZKqrQpR2yuO5bjWEOg0UZFKCVq1EoU7KiCTyVslKnczP4ENcezdEBWBEYzrrH6y2tyVIJiDtPanea9ob6nCxvVzrSWy6d9vn7nLg+VHKKTmRrP4GpfcXtfe2t0xLCeCseD5qf1c5kzkPCZBKdYWWfPb5NSpwoBFpYSqQSNKyFagELUQcGIR6BRR7ccIIXeymspgqVjafIuPv5FLUIdlQ2AWRpRWeR2i2lPa8yJ+fvh1TncgrtumqukPhHaXhT1kfkg3Fzo3ltN18rtHKA43SgtWsfbI5H5JaRtBLOV56jFdP98dgXzKC6WUsiLQP6uen+QOA7WpAkjmi6jmVr17X3/2voWoEyum5fxOERUB8/s3GiG0d5MWcbMtiyg1Ya/K/eXeIjPysDyKr1kyRGWN89vGkAwR9INUmj0nchJ6tayu43Yq9a7qTJEWKZDa/ywxV1kdr2McL+rMlWUN7WcFehCUm+z2NHW2CvAFtpBbIMy+2FyN3V0t3OdcuK1Pt85xo7nNAkZVi2qvnN+bSsHU+QjKIrpTFwKdImp7IbKX5VZm99j/rKFURn7kv74Iu6iuvasmAMQ9ZaFy/lNRuOKE6kPU8jhEdxU32J+ybsiFjI7lymaXmwKwj5aSQS7nieQirP1ltoaK/e09832PcqzSPaynyG5pBYFJjUBTiNqMuwcyMK31/Xlcc1IvVrne1ItAU4g69cJZZl4QaA4ChajNwbX0WhCoFYFC1FrhLJ0VBJqDQCFqc3AtvRYEakWgELVWOEtnBYHmIFCI2hxcS68FgVoRKEStFc7SWUGgOQgUojYH19JrQaBWBApRa4WzdFYQaA4ChajNwbX0WhCoFYFC1FrhLJ0VBJqDQCFqc3AtvRYEakWgELVWOEtnBYHmIFCI2hxcS68FgVoRKEStFc7SWUGgOQgUojYH19JrQaBWBApRa4WzdFYQaA4ChajNwbX0WhCoFYFC1FrhLJ0VBJqDQCFqc3AtvRYEakWgELVWOEtnBYHmIFCI2hxcS68FgVoRKEStFc7SWUGgOQgUojYH19JrQaBWBApRa4WzdFYQaA4ChajNwbX0WhCoFYFC1FrhLJ0VBJqDQCFqc3AtvRYEakWgELVWOEtnBYHmIFCI2hxcS68FgVoRKEStFc7SWUGgOQgUojYH19JrQaBWBApRa4WzdFYQaA4ChajNwbX0WhCoFYFC1FrhLJ0VBJqDQCFqc3AtvRYEakWgELVWOEtnBYHmIFCI2hxcS68FgVoRKEStFc7SWUGgOQgUojYH19JrQaBWBApRa4WzdFYQaA4ChajNwbX0WhCoFYFC1FrhLJ0VBJqDQCFqc3AtvRYEakWgELVWOEtnBYHmIFCI2hxcS68FgVoRKEStFc7SWUGgOQgUojYH19JrQaBWBApRa4WzdFYQaA4ChajNwbX0WhCoFYFC1FrhLJ0VBJqDQCFqc3AtvRYEakWgELVWOEtnBYHmIFCI2hxcS68FgVoRKEStFc7SWUGgOQgUojYH19JrQaBWBApRa4WzdFYQaA4ChajNwbX0WhCoFYFC1FrhLJ0VBJqDQCFqc3AtvRYEakWgELVWOEtnBYHmIFCI2hxcS68FgVoRKEStFc7SWUGgOQgUojYH19JrQaBWBApRa4WzdFYQaA4ChajNwbX0WhCoFYFC1FrhLJ0VBJqDQCFqc3AtvRYEakWgELVWOEtnBYHmIFCI2hxcS68FgVoRKEStFc7SWUGgOQgUojYH19JrQaBWBApRa4WzdFYQaA4ChajNwbX0WhCoFYFC1FrhLJ0VBJqDQCFqc3AtvRYEakWgELVWOEtnBYHmIFCI2hxcS68FgVoRKEStFc7SWUGgOQgUojYH19JrQaBWBApRa4WzdFYQaA4ChajNwbX0WhCoFYFC1FrhLJ0VBJqDQCFqc3AtvRYEakWgELVWOEtnBYHmIFCI2hxcS68FgVoRKEStFc7SWUGgOQgUojYH19JrQaBWBApRa4WzdFYQaA4ChajNwbX0WhCoFYFC1FrhLJ0VBJqDQCFqc3AtvRYEakWgELVWOEtnBYHmIFCI2hxcS68FgVoRKEStFc7SWUGgOQgUojYH19JrQaBWBApRa4WzdFYQaA4ChajNwbX0WhCoFYFC1FrhLJ0VBJqDQCFqc3AtvRYEakWgELVWOEtnBYHmIFCI2hxcS68FgVoRmObTTz8dU2uPpbOCQEGgdgQKUWuHtHRYEKgfgULU+jEtPRYEakegELV2SEuHBYH6EShErR/T0mNBoHYEClFrh7R0WBCoH4FC1PoxLT0WBGpHoBC1AdIxY8bE+++/HyNHjoyePXtGjx49age97g6N+aOPPko//tammWaamGGGGdKPv7t6g3kee0tjnXbaaWPGGWcMv6fGVohaWfUPPvggXnvttXjyySdj6NChseaaa8bXvva1Li0XhHv48OHx0EMPxXvvvRfdunVL4x01alRSNCussEJ84Qtf6NJk/fjjj+Oqq66KmWaaqVWsp5tuulhiiSVigQUW6NLr0azBFaJGxOjRo+OVV16JZ555JlmlxRZbLJ566qmYY445YtVVV20W9hPdbybpgAEDkpAvvfTSMfPMM6d+KZ2BAwfGhx9+GH369OnSZKUcL7nkkth6661bxeTtt9+ON998M9Zff/2Jxm1y7GCqJyoX99Zbb00EXWSRRWK++eaL2WefPa6//vqYbbbZujRRR4wYEXfffXf06tUrVlxxxejevft4Mvjpp5/Ggw8+GO+++26svvrqyXXsii0T9ZBDDml1eBTp448/XojaFRew2WN64IEH4rnnnov5558/Fl100WRB835uciAql/eOO+5IwpstaSNmLOtNN92U3HgucFdshahtr8pUa1Fvu+22ePnll2PzzTdPe7m8t8uQTS5Eveuuu2KLLbaY4EpfffXV8e1vf7sQtW0+dNkjpmqi/utf/0pCXoj6+cpnsaht4z/VEhU0/fv3jyFDhkTv3r1j8cUXL65v2/LSlCMKUduGdaomKng++eSTFEySIijBpLYFphlHFKK2jepUT1QQ5fTMoEGDxqVnnn766ck+PfPYY4+l9Myyyy5b0jNtc6FLH1GIWlmeXPDwxBNPxKuvvhprrLHGZFXwoLonV+5QPrPMMstkU/Ag4DWh9FEpeChPeBhPk04pJYQmRfBLCWGXNpTtHlyxqO2GqhxYEPj8EChE/fywL1cuCLQbgULUdkNVDiwIfH4IFKJ+ftiXKxcE2o1AIWq7oSoHFgQ+PwQKUT8/7MuVCwLtRqAQtd1QlQMLAp8fAv8P91noA9upNpkAAAAASUVORK5CYII=;" vertex="1" parent="1">
          <mxGeometry x="680" y="-5.560000000000002" width="140" height="311.11" as="geometry" />
        </mxCell>
        <mxCell id="oRtwYqCaFaRlUAZQ301p-32" style="edgeStyle=orthogonalEdgeStyle;rounded=0;orthogonalLoop=1;jettySize=auto;html=1;entryX=0;entryY=0.5;entryDx=0;entryDy=0;" edge="1" parent="1" source="oRtwYqCaFaRlUAZQ301p-12" target="oRtwYqCaFaRlUAZQ301p-31">
          <mxGeometry relative="1" as="geometry" />
        </mxCell>
        <mxCell id="oRtwYqCaFaRlUAZQ301p-39" value="NO" style="edgeStyle=orthogonalEdgeStyle;rounded=0;orthogonalLoop=1;jettySize=auto;html=1;" edge="1" parent="1" source="oRtwYqCaFaRlUAZQ301p-33" target="oRtwYqCaFaRlUAZQ301p-36">
          <mxGeometry relative="1" as="geometry" />
        </mxCell>
        <mxCell id="oRtwYqCaFaRlUAZQ301p-41" style="edgeStyle=orthogonalEdgeStyle;rounded=0;orthogonalLoop=1;jettySize=auto;html=1;entryX=0.5;entryY=0;entryDx=0;entryDy=0;" edge="1" parent="1" source="oRtwYqCaFaRlUAZQ301p-33" target="oRtwYqCaFaRlUAZQ301p-40">
          <mxGeometry relative="1" as="geometry" />
        </mxCell>
        <mxCell id="oRtwYqCaFaRlUAZQ301p-42" value="YES" style="edgeLabel;html=1;align=center;verticalAlign=middle;resizable=0;points=[];" vertex="1" connectable="0" parent="oRtwYqCaFaRlUAZQ301p-41">
          <mxGeometry x="-0.27" y="-2" relative="1" as="geometry">
            <mxPoint as="offset" />
          </mxGeometry>
        </mxCell>
        <mxCell id="oRtwYqCaFaRlUAZQ301p-33" value="是否登录？" style="rhombus;whiteSpace=wrap;html=1;" vertex="1" parent="1">
          <mxGeometry x="690" y="360" width="80" height="80" as="geometry" />
        </mxCell>
        <mxCell id="oRtwYqCaFaRlUAZQ301p-34" style="edgeStyle=orthogonalEdgeStyle;rounded=0;orthogonalLoop=1;jettySize=auto;html=1;entryX=0;entryY=0.5;entryDx=0;entryDy=0;" edge="1" parent="1" source="oRtwYqCaFaRlUAZQ301p-17" target="oRtwYqCaFaRlUAZQ301p-33">
          <mxGeometry relative="1" as="geometry" />
        </mxCell>
        <mxCell id="oRtwYqCaFaRlUAZQ301p-35" value="" style="group" vertex="1" connectable="0" parent="1">
          <mxGeometry x="860" y="350" width="80" height="100" as="geometry" />
        </mxCell>
        <mxCell id="oRtwYqCaFaRlUAZQ301p-36" value="登入首页面" style="rounded=0;whiteSpace=wrap;html=1;" vertex="1" parent="oRtwYqCaFaRlUAZQ301p-35">
          <mxGeometry width="80" height="100" as="geometry" />
        </mxCell>
        <mxCell id="oRtwYqCaFaRlUAZQ301p-47" style="edgeStyle=orthogonalEdgeStyle;rounded=0;orthogonalLoop=1;jettySize=auto;html=1;entryX=0.5;entryY=0;entryDx=0;entryDy=0;" edge="1" parent="1" source="oRtwYqCaFaRlUAZQ301p-40" target="oRtwYqCaFaRlUAZQ301p-44">
          <mxGeometry relative="1" as="geometry" />
        </mxCell>
        <mxCell id="oRtwYqCaFaRlUAZQ301p-48" value="YES" style="edgeLabel;html=1;align=center;verticalAlign=middle;resizable=0;points=[];" vertex="1" connectable="0" parent="oRtwYqCaFaRlUAZQ301p-47">
          <mxGeometry x="0.2847" y="-4" relative="1" as="geometry">
            <mxPoint as="offset" />
          </mxGeometry>
        </mxCell>
        <mxCell id="oRtwYqCaFaRlUAZQ301p-49" style="edgeStyle=orthogonalEdgeStyle;rounded=0;orthogonalLoop=1;jettySize=auto;html=1;entryX=0.5;entryY=0;entryDx=0;entryDy=0;" edge="1" parent="1" source="oRtwYqCaFaRlUAZQ301p-40" target="oRtwYqCaFaRlUAZQ301p-46">
          <mxGeometry relative="1" as="geometry" />
        </mxCell>
        <mxCell id="oRtwYqCaFaRlUAZQ301p-50" value="NO" style="edgeLabel;html=1;align=center;verticalAlign=middle;resizable=0;points=[];" vertex="1" connectable="0" parent="oRtwYqCaFaRlUAZQ301p-49">
          <mxGeometry x="-0.8424" y="-1" relative="1" as="geometry">
            <mxPoint as="offset" />
          </mxGeometry>
        </mxCell>
        <mxCell id="oRtwYqCaFaRlUAZQ301p-40" value="管理员？" style="rhombus;whiteSpace=wrap;html=1;" vertex="1" parent="1">
          <mxGeometry x="690" y="560" width="80" height="80" as="geometry" />
        </mxCell>
        <mxCell id="oRtwYqCaFaRlUAZQ301p-43" value="" style="group" vertex="1" connectable="0" parent="1">
          <mxGeometry x="570" y="700" width="100" height="220" as="geometry" />
        </mxCell>
        <mxCell id="oRtwYqCaFaRlUAZQ301p-44" value="管理员首页" style="rounded=0;whiteSpace=wrap;html=1;" vertex="1" parent="oRtwYqCaFaRlUAZQ301p-43">
          <mxGeometry width="100" height="80" as="geometry" />
        </mxCell>
        <mxCell id="oRtwYqCaFaRlUAZQ301p-45" value="" style="group" vertex="1" connectable="0" parent="1">
          <mxGeometry x="790" y="700" width="100" height="220" as="geometry" />
        </mxCell>
        <mxCell id="oRtwYqCaFaRlUAZQ301p-46" value="收款员收款界面" style="rounded=0;whiteSpace=wrap;html=1;" vertex="1" parent="oRtwYqCaFaRlUAZQ301p-45">
          <mxGeometry width="100" height="80" as="geometry" />
        </mxCell>
      </root>
    </mxGraphModel>
  </diagram>
</mxfile>
